<svg width="216" height="130" viewBox="0 0 216 130" fill="none" xmlns="http://www.w3.org/2000/svg">
<path d="M19.4562 83.2141L55.2322 68.6759V81.3583L31.3872 91.5664V108.897L19.4562 113.528V83.2141ZM46.7587 12.3764C65.1783 12.0812 80.3503 26.7383 80.6462 45.1141C80.6498 45.3379 80.6512 45.5617 80.6503 45.7854V83.8327C80.0229 98.9967 92.89 111.053 108.266 111.053C123.25 110.962 135.327 98.7805 135.255 83.8327V41.4529L123.329 46.0935V83.5222C123.239 91.8142 116.428 98.4633 108.116 98.3736C108.062 98.373 108.007 98.3721 107.953 98.3709C99.6669 98.3315 92.8853 91.7826 92.5764 83.5222V45.7854C92.7767 20.7002 72.5551 0.202528 47.41 0.00262326C47.1929 0.000897126 46.9758 0.000720446 46.7587 0.00209307C21.1756 -0.238287 0.241013 20.2567 5.94653e-05 45.779C3.9188e-05 45.7811 1.90548e-05 45.7833 0 45.7854V120.024L12.8671 115.384V45.7854C12.9008 27.2996 27.9495 12.3411 46.4794 12.3748C46.5725 12.3749 46.6656 12.3755 46.7587 12.3764ZM170.09 111.063C185.242 111.124 197.591 98.9487 197.706 83.8327V17.3252L185.78 21.9659V83.8255C185.78 91.8672 178.248 98.6742 169.774 98.6742C161.444 98.745 154.598 92.1339 154.398 83.8255V34.6411L141.531 39.2818V83.8327C142.092 99.1242 154.753 111.191 170.09 111.053V111.063ZM204.295 15.1613V83.8327C204.139 102.548 188.85 117.618 170.09 117.55C156.61 117.503 144.324 109.829 138.394 97.7523C130.968 114.519 111.324 122.105 94.5171 114.696C82.2991 109.311 74.4947 97.157 74.6981 83.8327V45.7854C74.4965 30.5698 61.969 18.398 46.717 18.5991C31.7493 18.7965 19.6637 30.8534 19.4659 45.7854V75.8006L55.2418 61.2624V48.5679L31.3872 59.0865V45.7854C31.4772 37.4935 38.2881 30.8443 46.5998 30.9341C46.6544 30.9347 46.709 30.9355 46.7635 30.9367C55.0498 30.9749 61.8321 37.5245 62.1398 45.7854C62.4535 46.0959 62.1398 83.8327 62.1398 83.8327C62.1337 109.142 82.589 129.719 107.958 129.924C119.279 129.646 130.107 125.245 138.399 117.55C147.053 125.264 158.179 129.651 169.781 129.924C195.258 129.855 215.882 109.248 215.913 83.8327V10.5206L204.295 15.1613Z" fill="white"/>
</svg>
