<svg width="174" height="48" viewBox="0 0 174 48" fill="none" xmlns="http://www.w3.org/2000/svg">
<path d="M103.699 12.1299H98.9621L93.7422 27.9971H97.0536L98.2477 24.1107H104.317L105.539 27.9971H108.92L103.699 12.1299ZM99.1168 21.2823L101.247 14.3496L103.427 21.2823H99.1168Z" fill="white"/>
<path d="M65.8083 27.9972V19.5347H58.7026V22.1332H62.6981C62.639 22.6689 62.4879 23.152 62.2439 23.582C61.922 24.1492 61.4697 24.5938 60.8871 24.9157C60.3199 25.2223 59.6453 25.3757 58.8635 25.3757C57.6217 25.3757 56.6329 24.9157 55.897 23.9959C55.1611 23.0761 54.7932 21.7883 54.7932 20.1326C54.7932 18.4309 55.1764 17.1201 55.943 16.2003C56.7095 15.2804 57.7137 14.8205 58.9555 14.8205C59.9367 14.8205 60.7338 15.0888 61.3471 15.6254C61.9756 16.1466 62.3665 16.8595 62.5199 17.764L65.6703 16.9132C65.4557 15.886 65.0341 14.9968 64.4055 14.2456C63.7923 13.4791 63.018 12.8889 62.0829 12.475C61.1631 12.0457 60.1282 11.8311 58.9785 11.8311C57.5221 11.8311 56.2266 12.1684 55.0922 12.8429C53.973 13.5174 53.0991 14.4756 52.4706 15.7174C51.8574 16.9591 51.5508 18.4309 51.5508 20.1326C51.5508 21.7883 51.8344 23.2294 52.4016 24.4558C52.9842 25.6669 53.7814 26.6098 54.7932 27.2843C55.805 27.9588 56.9548 28.2961 58.2426 28.2961C59.4078 28.2961 60.4119 28.0278 61.2551 27.4913C61.9719 27.0351 62.5488 26.411 62.9886 25.6225L63.2327 27.9972H65.8083Z" fill="white"/>
<path d="M74.956 12.1299H71.9896L66.7695 27.9971H70.0809L71.275 24.1107H77.3442L78.5664 27.9971H81.9471L76.7268 12.1299H74.956ZM72.144 21.2823L74.2742 14.3491L76.4547 21.2823H72.144Z" fill="white"/>
<path d="M86.314 12.1299H83.1172V27.9971H84.5429H86.314H93.3969V25.0306H86.314V12.1299Z" fill="white"/>
<path d="M170.407 12.1299V24.9565L165.071 12.1299H163.071H161.806H160.035V27.9971H163.071V15.1708L168.406 27.9971H170.407H171.671H173.442V12.1299H170.407Z" fill="white"/>
<path d="M155.396 12.6589C154.476 12.107 153.38 11.8311 152.107 11.8311C150.82 11.8311 149.631 12.0994 148.543 12.6359C147.47 13.1725 146.534 13.9084 145.738 14.8435C144.956 15.7634 144.342 16.8365 143.898 18.0629C143.468 19.2894 143.254 20.6001 143.254 21.9953C143.254 23.2064 143.492 24.2872 143.967 25.2377C144.458 26.1882 145.162 26.9394 146.082 27.4913C147.003 28.0278 148.098 28.2961 149.371 28.2961C150.674 28.2961 151.862 28.0278 152.935 27.4913C154.008 26.9547 154.936 26.2265 155.718 25.3067C156.515 24.3715 157.128 23.2907 157.558 22.0643C158.002 20.8378 158.224 19.5193 158.224 18.1089C158.224 16.8978 157.979 15.8247 157.489 14.8895C157.013 13.939 156.316 13.1955 155.396 12.6589ZM154.522 21.0524C154.276 21.8802 153.924 22.6162 153.464 23.26C153.004 23.8886 152.468 24.3868 151.854 24.7548C151.241 25.1227 150.567 25.3067 149.831 25.3067C148.696 25.3067 147.868 24.9924 147.347 24.3638C146.826 23.72 146.565 22.8614 146.565 21.7883C146.565 20.8378 146.688 19.9409 146.934 19.0978C147.194 18.2546 147.554 17.5187 148.015 16.8902C148.474 16.2463 149.01 15.7404 149.624 15.3724C150.237 15.0045 150.911 14.8205 151.648 14.8205C152.782 14.8205 153.61 15.1425 154.131 15.7864C154.652 16.4302 154.913 17.2887 154.913 18.3619C154.913 19.3124 154.783 20.2093 154.522 21.0524Z" fill="white"/>
<path d="M141.426 12.1299H138.23V27.9971H141.426V12.1299Z" fill="white"/>
<path d="M134.611 19.9716C134.09 19.5883 133.508 19.2817 132.864 19.0518C132.235 18.8065 131.599 18.6072 130.955 18.4539C130.311 18.2852 129.721 18.1089 129.184 17.925C128.663 17.741 128.241 17.5264 127.92 17.2811C127.598 17.0205 127.437 16.6755 127.437 16.2463C127.437 15.817 127.62 15.4491 127.989 15.1425C128.371 14.8205 129.001 14.6596 129.874 14.6596C130.686 14.6596 131.377 14.8512 131.944 15.2345C132.511 15.6024 132.933 16.2003 133.209 17.0281L136.198 15.9933C135.769 14.6442 135.025 13.6171 133.968 12.9119C132.925 12.1913 131.653 11.8311 130.15 11.8311C128.909 11.8311 127.843 12.038 126.954 12.452C126.065 12.8506 125.39 13.3948 124.93 14.0847C124.47 14.7745 124.24 15.5641 124.24 16.4532C124.24 17.2811 124.394 17.971 124.7 18.5229C125.022 19.0594 125.451 19.5041 125.988 19.8567C126.525 20.1939 127.107 20.4698 127.736 20.6845C128.364 20.8991 128.992 21.0984 129.622 21.2824C130.25 21.451 130.833 21.635 131.369 21.8343C131.906 22.0183 132.335 22.2636 132.657 22.5702C132.979 22.8768 133.139 23.2677 133.139 23.743C133.139 24.2489 132.909 24.6628 132.449 24.9847C131.99 25.2913 131.307 25.4446 130.403 25.4446C129.529 25.4446 128.793 25.2377 128.195 24.8238C127.598 24.3945 127.145 23.72 126.839 22.8001L123.734 23.8349C124.21 25.3067 124.992 26.4181 126.08 27.1693C127.184 27.9205 128.563 28.2961 130.219 28.2961C131.507 28.2961 132.603 28.0968 133.508 27.6982C134.428 27.2843 135.133 26.7247 135.623 26.0195C136.129 25.3143 136.382 24.5018 136.382 23.582C136.382 22.7081 136.221 21.9799 135.899 21.3973C135.577 20.8148 135.148 20.3395 134.611 19.9716Z" fill="white"/>
<path d="M123.036 12.1299H119.289L113.287 19.2067V12.1299H110.09V27.9971H113.287V23.3885L115.095 21.3L119.61 27.9971H123.451L117.154 18.923L123.036 12.1299Z" fill="white"/>
<path d="M155.072 35.3125C154.774 35.1282 154.428 35.0361 154.032 35.0361C153.636 35.0361 153.284 35.1282 152.975 35.3125C152.672 35.4968 152.433 35.7541 152.26 36.0847C152.092 36.4152 152.008 36.8054 152.008 37.2551C152.008 37.7049 152.092 38.0978 152.26 38.4337C152.428 38.7643 152.664 39.0216 152.967 39.2059C153.27 39.3847 153.62 39.4741 154.015 39.4741C154.411 39.4741 154.761 39.3847 155.064 39.2059C155.367 39.0216 155.606 38.7643 155.779 38.4337C155.952 38.0978 156.039 37.7049 156.039 37.2551C156.039 36.8054 155.952 36.4152 155.779 36.0847C155.611 35.7541 155.375 35.4968 155.072 35.3125ZM155.162 38.1574C155.042 38.4012 154.883 38.5855 154.682 38.7101C154.481 38.8293 154.259 38.8889 154.015 38.8889C153.772 38.8889 153.55 38.8293 153.349 38.7101C153.154 38.5855 152.997 38.4012 152.878 38.1574C152.764 37.9135 152.707 37.6128 152.707 37.2551C152.707 36.892 152.766 36.5913 152.886 36.3529C153.005 36.1091 153.164 35.9276 153.365 35.8083C153.566 35.6837 153.788 35.6214 154.032 35.6214C154.276 35.6214 154.495 35.6837 154.69 35.8083C154.891 35.9276 155.048 36.1091 155.162 36.3529C155.281 36.5913 155.34 36.892 155.34 37.2551C155.34 37.6128 155.281 37.9135 155.162 38.1574Z" fill="white"/>
<path d="M147.989 38.5046L146.994 35.1338H146.221L145.242 38.5124L144.319 35.1338H143.637L144.88 39.3767H145.579L146.616 35.8499L147.652 39.3767H148.351L149.595 35.1338H148.904L147.989 38.5046Z" fill="white"/>
<path d="M73.0662 38.7183L71.782 35.1338H71.0586L72.668 39.3767H73.4564L75.0658 35.1338H74.3667L73.0662 38.7183Z" fill="white"/>
<path d="M80.4014 35.3125C80.125 35.1282 79.7809 35.0361 79.3691 35.0361C78.9843 35.0361 78.643 35.1282 78.3449 35.3125C78.0523 35.4968 77.822 35.7569 77.654 36.0928C77.4914 36.4234 77.4102 36.8108 77.4102 37.2551C77.4102 37.6995 77.4914 38.0896 77.654 38.4256C77.822 38.7562 78.0523 39.0135 78.3449 39.1978C78.6375 39.382 78.9734 39.4741 79.3528 39.4741C79.6725 39.4741 79.9516 39.4199 80.19 39.3116C80.4339 39.2032 80.6347 39.0541 80.7915 38.8645C80.9542 38.6694 81.0679 38.4526 81.1329 38.2143H80.4583C80.377 38.431 80.2469 38.599 80.0681 38.7182C79.8947 38.8374 79.6562 38.897 79.3528 38.897C79.1252 38.897 78.9139 38.8374 78.7188 38.7182C78.5292 38.599 78.3747 38.4201 78.2555 38.1817C78.1496 37.9701 78.0936 37.7109 78.0817 37.4096H81.2386C81.2443 37.3337 81.2467 37.2687 81.2467 37.2145V37.0519C81.2467 36.6888 81.1736 36.3556 81.0273 36.0522C80.8867 35.7433 80.6778 35.4968 80.4014 35.3125ZM78.0858 36.8812C78.1051 36.6442 78.1605 36.4399 78.2555 36.2716C78.3747 36.0548 78.5292 35.8923 78.7188 35.7839C78.9139 35.6701 79.1252 35.6132 79.3528 35.6132C79.6996 35.6132 79.9868 35.7243 80.2144 35.9465C80.4478 36.1633 80.5697 36.4748 80.5802 36.8812H78.0858Z" fill="white"/>
<path d="M160.013 35.4344C159.861 35.5645 159.737 35.7243 159.639 35.914L159.59 35.1337H158.973V39.3766H159.655V37.0763C159.655 36.8216 159.69 36.6103 159.761 36.4423C159.832 36.2689 159.926 36.1334 160.046 36.0359C160.17 35.9384 160.308 35.8679 160.46 35.8246C160.612 35.7758 160.769 35.7514 160.932 35.7514H161.322V35.0361C161.045 35.0361 160.796 35.0713 160.574 35.1418C160.357 35.2068 160.17 35.3044 160.013 35.4344Z" fill="white"/>
<path d="M67.6512 35.8084C67.5157 35.5646 67.326 35.375 67.0822 35.2395C66.8384 35.104 66.5484 35.0363 66.2125 35.0363C65.8223 35.0363 65.481 35.1338 65.1883 35.3289C64.8957 35.5185 64.6681 35.7786 64.5056 36.1092C64.343 36.4397 64.2617 36.819 64.2617 37.2471C64.2617 37.6752 64.343 38.0573 64.5056 38.3932C64.6681 38.7291 64.8957 38.9947 65.1883 39.1898C65.481 39.3794 65.8196 39.4742 66.2044 39.4742C66.4536 39.4742 66.6704 39.439 66.8546 39.3686C67.0443 39.2927 67.2041 39.1952 67.3342 39.076C67.4696 38.9567 67.5781 38.8294 67.6593 38.6939L67.7162 39.3767H68.334V33.5244H67.6512V35.8084ZM67.4642 38.1168C67.3558 38.3607 67.2014 38.5503 67.0009 38.6858C66.8004 38.8159 66.5647 38.8809 66.2938 38.8809C66.0337 38.8809 65.8033 38.8159 65.6029 38.6858C65.4023 38.5503 65.2452 38.3607 65.1314 38.1168C65.0177 37.873 64.9608 37.5858 64.9608 37.2552C64.9608 36.9247 65.0177 36.6375 65.1314 36.3937C65.2452 36.1498 65.4023 35.9629 65.6029 35.8328C65.8033 35.6973 66.0337 35.6296 66.2938 35.6296C66.5647 35.6296 66.8004 35.6973 67.0009 35.8328C67.2014 35.9629 67.3558 36.1498 67.4642 36.3937C67.5726 36.6375 67.6268 36.9247 67.6268 37.2552C67.6268 37.5858 67.5726 37.873 67.4642 38.1168Z" fill="white"/>
<path d="M167.286 35.1338H166.448L164.741 36.9626V33.5244H164.059V39.3767H164.741V37.2188L166.57 39.3767H167.44L165.431 37.0894L167.286 35.1338Z" fill="white"/>
<path d="M59.0697 33.6865L56.9727 39.3763H57.6879L58.2142 37.9132H60.6293L61.1506 39.3763H61.8821L59.7931 33.6865H59.0697ZM58.413 37.3605L59.4274 34.54L60.4323 37.3605H58.413Z" fill="white"/>
<path d="M85.1771 35.4344C85.0251 35.5645 84.9007 35.7243 84.8032 35.914L84.7545 35.1337H84.1367V39.3766H84.8195V37.0763C84.8195 36.8216 84.8544 36.6103 84.9251 36.4423C84.9959 36.2689 85.0901 36.1334 85.2096 36.0359C85.334 35.9384 85.4721 35.8679 85.6241 35.8246C85.7762 35.7758 85.933 35.7514 86.0956 35.7514H86.4857V35.0361C86.2094 35.0361 85.9598 35.0713 85.7379 35.1418C85.5209 35.2068 85.334 35.3044 85.1771 35.4344Z" fill="white"/>
<path d="M90.368 34.085H89.7747L89.6853 35.1335H88.9375V35.7106H89.6853V38.1409C89.6853 38.4498 89.7316 38.6963 89.8235 38.8806C89.921 39.0594 90.0592 39.1868 90.238 39.2626C90.4168 39.3385 90.6281 39.3764 90.872 39.3764H91.5466V38.7912H91.0671C90.807 38.7912 90.6257 38.7479 90.5225 38.6611C90.42 38.569 90.368 38.3956 90.368 38.1409V35.7106H91.571V35.1335H90.368V34.085Z" fill="white"/>
<path d="M104.846 33.3862C104.711 33.3862 104.597 33.4295 104.505 33.5163C104.418 33.5976 104.375 33.7059 104.375 33.8414C104.375 33.9769 104.418 34.0907 104.505 34.1828C104.597 34.2695 104.711 34.3128 104.846 34.3128C104.976 34.3128 105.087 34.2695 105.18 34.1828C105.272 34.0907 105.318 33.9769 105.318 33.8414C105.318 33.7059 105.272 33.5976 105.18 33.5163C105.087 33.4295 104.976 33.3862 104.846 33.3862Z" fill="white"/>
<path d="M135.183 35.3125C134.906 35.1282 134.562 35.0361 134.15 35.0361C133.766 35.0361 133.424 35.1282 133.126 35.3125C132.834 35.4968 132.603 35.7569 132.435 36.0928C132.273 36.4234 132.191 36.8108 132.191 37.2551C132.191 37.6995 132.273 38.0896 132.435 38.4256C132.603 38.7562 132.834 39.0135 133.126 39.1978C133.419 39.382 133.755 39.4741 134.134 39.4741C134.454 39.4741 134.733 39.4199 134.971 39.3116C135.215 39.2032 135.416 39.0541 135.573 38.8645C135.735 38.6694 135.849 38.4526 135.914 38.2143H135.239C135.158 38.431 135.028 38.599 134.849 38.7182C134.676 38.8374 134.438 38.897 134.134 38.897C133.906 38.897 133.695 38.8374 133.5 38.7182C133.311 38.599 133.156 38.4201 133.037 38.1817C132.931 37.9701 132.875 37.7109 132.863 37.4096H136.02C136.025 37.3337 136.028 37.2687 136.028 37.2145V37.0519C136.028 36.6888 135.955 36.3556 135.808 36.0522C135.668 35.7433 135.459 35.4968 135.183 35.3125ZM132.867 36.8812C132.887 36.6442 132.942 36.4399 133.037 36.2716C133.156 36.0548 133.311 35.8923 133.5 35.7839C133.695 35.6701 133.906 35.6132 134.134 35.6132C134.481 35.6132 134.768 35.7243 134.996 35.9465C135.229 36.1633 135.351 36.4748 135.361 36.8812H132.867Z" fill="white"/>
<path d="M111.188 35.2231C110.955 35.0985 110.679 35.0361 110.359 35.0361C110.05 35.0361 109.776 35.1066 109.538 35.2475C109.305 35.383 109.126 35.5726 109.002 35.8164L108.969 35.1337H108.352V39.3766H109.034V36.9544C109.034 36.6672 109.086 36.4261 109.189 36.231C109.297 36.0305 109.441 35.8788 109.62 35.7758C109.798 35.6728 109.993 35.6214 110.205 35.6214C110.524 35.6214 110.776 35.7189 110.961 35.914C111.15 36.1091 111.245 36.399 111.245 36.7837V39.3766H111.928V36.7105C111.928 36.3312 111.863 36.0196 111.733 35.7758C111.603 35.5265 111.422 35.3423 111.188 35.2231Z" fill="white"/>
<path d="M128.559 35.2231C128.326 35.0985 128.05 35.0361 127.73 35.0361C127.421 35.0361 127.148 35.1066 126.909 35.2475C126.676 35.383 126.497 35.5726 126.373 35.8164L126.34 35.1337H125.723V39.3766H126.405V36.9544C126.405 36.6672 126.457 36.4261 126.56 36.231C126.668 36.0305 126.812 35.8788 126.991 35.7758C127.169 35.6728 127.365 35.6214 127.576 35.6214C127.895 35.6214 128.147 35.7189 128.332 35.914C128.521 36.1091 128.616 36.399 128.616 36.7837V39.3766H129.299V36.7105C129.299 36.3312 129.234 36.0196 129.104 35.7758C128.974 35.5265 128.793 35.3423 128.559 35.2231Z" fill="white"/>
<path d="M105.187 35.1338H104.504V39.3767H105.187V35.1338Z" fill="white"/>
<path d="M100.786 37.0844C100.563 37.0032 100.298 36.9408 99.9896 36.8975C99.7457 36.865 99.5474 36.8162 99.3963 36.7512C99.2443 36.6862 99.1362 36.6049 99.0711 36.5073C99.011 36.4098 98.9817 36.2987 98.9817 36.1741C98.9817 36.0061 99.0492 35.8706 99.1849 35.7677C99.3255 35.6647 99.5312 35.6132 99.8027 35.6132C100.063 35.6132 100.271 35.6728 100.429 35.7921C100.585 35.9058 100.677 36.063 100.705 36.2635H101.38C101.331 35.8679 101.171 35.5645 100.9 35.3531C100.628 35.1418 100.266 35.0361 99.8108 35.0361C99.5019 35.0361 99.2304 35.0876 98.9979 35.1906C98.7704 35.2936 98.594 35.4344 98.4696 35.6132C98.3501 35.7921 98.2908 35.9979 98.2908 36.231C98.2908 36.4261 98.3233 36.5967 98.3884 36.743C98.4582 36.8839 98.5558 37.0032 98.681 37.1007C98.811 37.1982 98.9655 37.2768 99.1443 37.3364C99.328 37.3906 99.5344 37.434 99.762 37.4665C99.9839 37.499 100.168 37.5423 100.315 37.5965C100.466 37.6453 100.58 37.7184 100.656 37.816C100.737 37.9135 100.778 38.049 100.778 38.2224C100.778 38.3524 100.746 38.4689 100.68 38.5719C100.615 38.6749 100.518 38.7562 100.388 38.8157C100.258 38.87 100.1 38.897 99.9165 38.897C99.6832 38.897 99.4905 38.8591 99.3393 38.7832C99.1931 38.7074 99.0793 38.6098 98.9979 38.4906C98.9167 38.366 98.8647 38.2332 98.8435 38.0923H98.1445C98.1713 38.3687 98.2502 38.6098 98.3802 38.8157C98.5151 39.0216 98.7078 39.1842 98.9573 39.3034C99.2118 39.4172 99.5287 39.4741 99.9083 39.4741C100.222 39.4741 100.496 39.4227 100.729 39.3197C100.967 39.2167 101.152 39.0677 101.282 38.8726C101.412 38.6776 101.477 38.4418 101.477 38.1655C101.482 37.8674 101.423 37.6345 101.298 37.4665C101.179 37.2931 101.008 37.1657 100.786 37.0844Z" fill="white"/>
<path d="M95.1984 35.1338H94.5156V39.3767H95.1984V35.1338Z" fill="white"/>
<path d="M116.644 35.0361C116.303 35.0361 116.013 35.1038 115.774 35.2393C115.536 35.3748 115.352 35.5563 115.222 35.7839C115.097 36.0061 115.035 36.2608 115.035 36.548C115.035 36.8298 115.097 37.0844 115.222 37.312C115.299 37.4524 115.4 37.573 115.52 37.6783L114.783 38.3931V38.58C114.859 38.6505 114.943 38.7182 115.035 38.7832C115.114 38.8361 115.212 38.8845 115.32 38.9302C115.228 38.9916 115.149 39.0563 115.084 39.1246C114.959 39.2601 114.87 39.3983 114.815 39.5391C114.767 39.6855 114.742 39.8263 114.742 39.9618C114.742 40.249 114.821 40.4901 114.978 40.6852C115.136 40.8803 115.358 41.0239 115.644 41.116C115.937 41.2136 116.274 41.2623 116.652 41.2623C117.086 41.2623 117.438 41.1946 117.709 41.0591C117.98 40.9291 118.178 40.7611 118.302 40.5552C118.432 40.3493 118.497 40.1298 118.497 39.8968C118.497 39.6421 118.446 39.4254 118.343 39.2465C118.241 39.0677 118.072 38.9269 117.839 38.8239C117.611 38.7209 117.306 38.6559 116.921 38.6288C116.639 38.6071 116.412 38.5827 116.238 38.5556C116.07 38.5286 115.94 38.5014 115.848 38.4744C115.756 38.4418 115.683 38.4066 115.628 38.3687C115.619 38.3622 115.608 38.3546 115.599 38.348L116.051 37.9687C116.229 38.022 116.426 38.0517 116.644 38.0517C116.997 38.0517 117.292 37.9867 117.53 37.8566C117.769 37.7211 117.95 37.5396 118.075 37.312C118.2 37.0844 118.262 36.8298 118.262 36.548C118.262 36.2608 118.2 36.0061 118.075 35.7839C118.055 35.748 118.032 35.7153 118.009 35.6817L118.823 35.6457V35.1337H117.285C117.098 35.0703 116.886 35.0361 116.644 35.0361ZM116.766 39.1815C117.184 39.2032 117.463 39.2764 117.603 39.401C117.75 39.531 117.823 39.7044 117.823 39.9212C117.823 40.0837 117.774 40.2219 117.676 40.3357C117.585 40.4549 117.452 40.5444 117.278 40.6039C117.105 40.669 116.896 40.7015 116.652 40.7015C116.408 40.7015 116.192 40.6716 116.002 40.6121C115.813 40.5525 115.666 40.4631 115.563 40.3438C115.461 40.2246 115.409 40.0756 115.409 39.8968C115.409 39.7559 115.453 39.6069 115.539 39.4497C115.615 39.3199 115.765 39.2033 115.985 39.0993C116.199 39.1337 116.458 39.1613 116.766 39.1815ZM117.351 37.2551C117.184 37.4122 116.948 37.4908 116.644 37.4908C116.352 37.4908 116.116 37.4122 115.937 37.2551C115.764 37.098 115.677 36.8623 115.677 36.548C115.677 36.2337 115.766 35.9979 115.945 35.8408C116.124 35.6837 116.357 35.6051 116.644 35.6051C116.948 35.6051 117.184 35.6837 117.351 35.8408C117.52 35.9979 117.603 36.2337 117.603 36.548C117.603 36.8623 117.52 37.098 117.351 37.2551Z" fill="white"/>
<path d="M139.931 34.085H139.337L139.248 35.1335H138.5V35.7106H139.248V38.1409C139.248 38.4498 139.294 38.6963 139.386 38.8806C139.484 39.0594 139.622 39.1868 139.801 39.2626C139.979 39.3385 140.191 39.3764 140.435 39.3764H141.109V38.7912H140.63C140.369 38.7912 140.188 38.7479 140.085 38.6611C139.983 38.569 139.931 38.3956 139.931 38.1409V35.7106H141.134V35.1335H139.931V34.085Z" fill="white"/>
<path d="M94.8581 33.3862C94.7224 33.3862 94.6086 33.4295 94.5168 33.5163C94.4298 33.5976 94.3867 33.7059 94.3867 33.8414C94.3867 33.9769 94.4298 34.0907 94.5168 34.1828C94.6086 34.2695 94.7224 34.3128 94.8581 34.3128C94.9882 34.3128 95.0987 34.2695 95.1914 34.1828C95.2833 34.0907 95.3296 33.9769 95.3296 33.8414C95.3296 33.7059 95.2833 33.5976 95.1914 33.5163C95.0987 33.4295 94.9882 33.3862 94.8581 33.3862Z" fill="white"/>
<path d="M27.2119 32.0626C35.134 28.8403 38.512 19.5808 35.2286 11.7772C34.9717 11.1664 34.4166 10.5195 34.8916 9.87331C34.9593 9.7812 35.3103 9.43681 35.4059 9.39578C35.7986 9.22721 35.9264 9.59385 36.161 9.63214C36.3066 9.65591 36.471 9.64025 36.5938 9.55478C37.5075 8.73714 38.5969 7.90062 38.7121 6.71335C38.7815 5.99839 38.6358 5.30597 38.1434 4.78443C36.8753 3.44125 35.5451 2.05364 34.0471 0.651166C33.465 0.14965 32.8309 -0.0688071 32.0544 0.0189201C30.8404 0.156104 30.1179 1.12584 29.3817 2.04882C28.9152 2.59553 29.7309 2.81879 29.4979 3.37781C29.42 3.56483 28.9233 4.0375 28.7336 4.11944C28.0957 4.39504 27.2089 3.82083 26.5801 3.59923C16.653 0.100882 6.87886 7.98503 7.04149 18.2148C7.20507 28.5106 17.396 36.0552 27.2119 32.0626ZM21.5844 11.2618C26.818 11.0883 29.9122 16.9976 27.3296 21.4157C24.9081 25.5581 19.0746 25.7388 16.4186 21.7331C13.586 17.461 16.3668 11.4347 21.5844 11.2618ZM40.9361 39.3575C30.1517 49.6161 13.5666 49.6771 2.72535 39.4677C1.88938 38.6804 0.477315 37.3609 0.154716 36.2703C-0.579885 33.7865 1.40742 31.4721 3.87608 31.3214C4.993 31.2532 6.18323 31.6056 7.11343 32.214C7.79356 32.6588 8.35288 33.3148 8.97295 33.8447C16.1772 39.9991 26.556 40.2078 33.9899 34.3217C35.6284 33.0243 36.5138 31.6064 38.8047 31.3478C40.6707 31.1372 42.5296 32.0322 43.2491 33.8095C44.2483 36.2776 42.5601 37.8127 40.9361 39.3575Z" fill="url(#paint0_linear_10028_14909)"/>
<defs>
<linearGradient id="paint0_linear_10028_14909" x1="11.1537" y1="6.69275" x2="33.1433" y2="44.7798" gradientUnits="userSpaceOnUse">
<stop offset="9.057e-07" stop-color="#1952E0"/>
<stop offset="0.223631" stop-color="#377EE0"/>
<stop offset="0.594918" stop-color="#66C3E0"/>
<stop offset="0.863566" stop-color="#83EEE0"/>
<stop offset="0.999999" stop-color="#8FFFE0"/>
</linearGradient>
</defs>
</svg>
