<svg width="60" height="60" viewBox="0 0 60 60" fill="none" xmlns="http://www.w3.org/2000/svg">
<path d="M55.6727 14.4716C55.6182 14.4653 55.5631 14.4608 55.5085 14.4547C55.3458 14.4368 55.1828 14.4205 55.0195 14.4045C54.884 14.3912 54.7488 14.3777 54.6129 14.3657C54.4452 14.3509 54.277 14.338 54.1088 14.3251C53.9909 14.316 53.8735 14.3061 53.7554 14.2981C53.443 13.1983 52.6253 12.3117 51.5688 11.9051C51.5682 11.9021 51.5674 11.8991 51.5668 11.896C51.5571 11.8491 51.5464 11.8023 51.5364 11.7554C51.4956 11.5649 51.4526 11.375 51.4077 11.1858C51.3942 11.1286 51.3808 11.0714 51.3669 11.0144C51.3116 10.7885 51.254 10.5635 51.1929 10.3395C51.1832 10.3043 51.1728 10.2693 51.1631 10.2343C51.1091 10.0395 51.0526 9.84562 50.994 9.65234C50.9763 9.59367 50.9586 9.53501 50.9404 9.47659C50.8712 9.25358 50.7999 9.03129 50.7247 8.81023C50.7196 8.79547 50.7142 8.78081 50.7091 8.76599C50.6378 8.55788 50.5634 8.35092 50.4868 8.1446C50.4761 8.11576 50.4665 8.08642 50.4556 8.05742C52.4784 9.94486 54.2376 12.1056 55.6727 14.4716ZM33.7208 19.7655C33.7676 19.7468 33.8145 19.7286 33.8613 19.7101C34.0827 19.6225 34.3038 19.534 34.5262 19.4496C34.7101 19.3799 34.8951 19.314 35.0797 19.2465C35.2626 19.1798 35.445 19.1118 35.6284 19.0474C35.8355 18.9745 36.0436 18.9053 36.2516 18.8354C36.4126 18.7812 36.5732 18.726 36.7346 18.6735C36.9593 18.6006 37.1847 18.5311 37.41 18.4615C37.5545 18.4169 37.6988 18.3716 37.8435 18.3284C38.0822 18.2572 38.3216 18.1892 38.561 18.1218C38.6926 18.0847 38.8241 18.0472 38.9558 18.0112C39.2057 17.9433 39.4561 17.8783 39.7065 17.8144C39.8281 17.7834 39.9496 17.7522 40.0713 17.7221C40.3297 17.6585 40.5885 17.5976 40.8475 17.5384C40.9618 17.5123 41.0761 17.4862 41.1905 17.4609C41.4553 17.4024 41.7203 17.3465 41.9855 17.2927C42.0944 17.2707 42.2034 17.249 42.3124 17.2277C42.5817 17.1751 42.8512 17.1247 43.1207 17.0771C43.2265 17.0584 43.3322 17.0403 43.4379 17.0224C43.7095 16.9763 43.9812 16.9321 44.2528 16.891C44.3578 16.8751 44.4628 16.8602 44.5677 16.8452C44.8391 16.806 45.1105 16.7686 45.3819 16.7344C45.4891 16.721 45.5962 16.7088 45.7034 16.6961C45.9716 16.6643 46.2397 16.634 46.5076 16.6072C46.6214 16.5957 46.7351 16.5861 46.8489 16.5757C46.8569 16.575 46.8649 16.5744 46.8728 16.5737C47.3484 17.8313 48.5023 18.7557 49.8885 18.8991C49.8825 19.0014 49.8793 19.1035 49.8722 19.2058C49.8692 19.2485 49.8657 19.2912 49.8625 19.3339C49.8411 19.6224 49.8161 19.9111 49.7852 20.2002C49.7836 20.216 49.7815 20.2318 49.7797 20.2476C49.7484 20.5367 49.7119 20.826 49.6711 21.1156C49.6673 21.1427 49.664 21.1697 49.6601 21.1969C49.6189 21.4829 49.5723 21.769 49.522 22.0552C49.5141 22.1004 49.5064 22.1456 49.4983 22.1908C49.4477 22.4706 49.3926 22.7506 49.3334 23.0305C49.3233 23.0779 49.313 23.1252 49.3027 23.1726C49.2413 23.4559 49.176 23.739 49.1057 24.0222C49.0971 24.0571 49.0878 24.0921 49.079 24.127C48.9289 24.7224 48.7592 25.3174 48.5702 25.9112C48.5592 25.9455 48.5487 25.9799 48.5377 26.0142C48.4467 26.297 48.3505 26.5792 48.2507 26.8613C48.2342 26.9081 48.2177 26.9549 48.2009 27.0016C48.1009 27.2801 47.9968 27.5583 47.8882 27.836C47.8707 27.8808 47.8528 27.9256 47.8351 27.9704C47.7228 28.254 47.6069 28.5374 47.4858 28.82C47.4741 28.8474 47.4618 28.8747 47.45 28.9021C47.3305 29.1788 47.2067 29.4551 47.0789 29.7308C46.0596 29.8224 45.1624 30.3354 44.5618 31.0946C44.4922 31.0664 44.4218 31.0394 44.3526 31.011C44.3287 31.0012 44.3053 30.9908 44.2816 30.981C44.105 30.9079 43.9295 30.8337 43.7554 30.7578C43.69 30.7294 43.6255 30.6999 43.5604 30.6711C43.4288 30.6127 43.2974 30.5542 43.1672 30.4944C43.0922 30.4599 43.0182 30.4247 42.9438 30.3898C42.8246 30.3337 42.7055 30.2777 42.5876 30.2203C42.51 30.1828 42.433 30.1445 42.3561 30.1064C42.2422 30.05 42.1287 29.9932 42.016 29.9356C41.9386 29.896 41.8616 29.8561 41.7846 29.8159C41.6731 29.7577 41.5622 29.6988 41.4518 29.6394C41.3763 29.5988 41.3011 29.5582 41.2263 29.517C41.1145 29.4556 41.0036 29.3934 40.8931 29.3307C40.8216 29.2902 40.7499 29.2499 40.6789 29.2088C40.5641 29.1425 40.4503 29.075 40.3369 29.0074C40.272 28.9686 40.2065 28.9304 40.1421 28.8912C40.0139 28.8134 39.8871 28.7341 39.7606 28.6546C39.7128 28.6245 39.6642 28.595 39.6165 28.5646C39.4415 28.4531 39.2681 28.34 39.0965 28.2253C39.0892 28.2203 39.082 28.2153 39.0746 28.2103C38.9122 28.1015 38.7513 27.991 38.592 27.8792C38.5391 27.842 38.4872 27.8041 38.4346 27.7666C38.3215 27.686 38.2087 27.6052 38.0971 27.5231C38.0351 27.4775 37.9739 27.431 37.9124 27.3849C37.8117 27.3095 37.7113 27.2338 37.6119 27.1573C37.5475 27.1075 37.4836 27.0571 37.4197 27.0068C37.3246 26.932 37.2299 26.8569 37.1361 26.7811C37.0716 26.7288 37.0074 26.6762 36.9433 26.6234C36.8515 26.5477 36.7603 26.4713 36.6697 26.3946C36.6065 26.341 36.5434 26.2873 36.4808 26.2331C36.3898 26.1545 36.2998 26.0751 36.2102 25.9953C36.1504 25.9421 36.0903 25.8891 36.0311 25.8353C35.938 25.751 35.8463 25.6658 35.7547 25.5802C35.7007 25.5298 35.6462 25.4797 35.5925 25.4289C35.4914 25.3327 35.3916 25.2353 35.2922 25.1376C35.25 25.0962 35.207 25.0552 35.165 25.0135C35.024 24.873 34.8845 24.7311 34.7471 24.5876C34.744 24.5844 34.7409 24.581 34.7378 24.5777C34.6043 24.438 34.4728 24.2969 34.3428 24.1546C34.3005 24.1082 34.2593 24.0611 34.2174 24.0144C34.1274 23.9143 34.0377 23.814 33.9495 23.7125C33.9 23.6556 33.8515 23.598 33.8026 23.5407C33.7234 23.448 33.6446 23.355 33.5668 23.2611C33.5157 23.1995 33.4654 23.1373 33.4149 23.0751C33.3409 22.9838 33.2672 22.8922 33.1945 22.7999C33.1439 22.7357 33.0938 22.6712 33.0439 22.6065C33.0036 22.5543 32.9641 22.5017 32.9244 22.4492C33.4352 21.8241 33.742 21.0256 33.742 20.1553C33.742 20.0235 33.7345 19.8936 33.7208 19.7655ZM40.176 4.10604C40.3241 3.96345 40.4712 3.81978 40.6174 3.67524C40.729 3.56475 40.8405 3.45401 40.9509 3.34239C41.0968 3.19507 41.2412 3.04645 41.3849 2.89733C41.4923 2.78586 41.5998 2.67455 41.706 2.56203C41.749 2.51666 41.793 2.47223 41.8358 2.42661C43.4732 3.13046 45.0503 3.98235 46.536 4.96551C46.5947 5.06362 46.6525 5.16221 46.7099 5.26105C46.7661 5.35817 46.8232 5.45489 46.8781 5.55266C46.9566 5.69265 47.0321 5.83386 47.1075 5.97507C47.1572 6.06795 47.2083 6.16027 47.2568 6.25365C47.3379 6.41043 47.4154 6.56841 47.4929 6.72633C47.5317 6.80537 47.5723 6.88384 47.6101 6.96312C47.7235 7.20072 47.8328 7.43922 47.9371 7.67853C48.0396 7.91376 48.1371 8.15095 48.2318 8.38913C48.2474 8.42817 48.2632 8.46711 48.2786 8.50621C48.3681 8.7347 48.4538 8.96464 48.5361 9.19572C48.552 9.24005 48.5674 9.28437 48.5828 9.32869C48.6652 9.56418 48.7447 9.80073 48.8196 10.0388C48.8272 10.0629 48.8342 10.0871 48.8417 10.1112C48.9137 10.3426 48.982 10.5751 49.047 10.8088C49.0555 10.8394 49.0645 10.8697 49.0728 10.9003C49.1383 11.1392 49.1994 11.3796 49.2574 11.6209C49.2688 11.668 49.28 11.7151 49.2911 11.7622C49.2937 11.7732 49.2957 11.7841 49.2983 11.795C48.053 12.1392 47.076 13.1298 46.7532 14.3838L46.7508 14.3841C46.5331 14.4037 46.3155 14.4233 46.0977 14.446C45.9159 14.465 45.7342 14.4865 45.5524 14.5076C45.3372 14.5326 45.122 14.558 44.9067 14.586C44.7235 14.6099 44.5403 14.6358 44.357 14.6618C44.1428 14.6922 43.9285 14.7235 43.7143 14.7569C43.5306 14.7855 43.3469 14.8158 43.1633 14.8467C42.9496 14.8825 42.736 14.9195 42.5224 14.9583C42.3385 14.9917 42.1546 15.0262 41.9707 15.0619C41.7576 15.1032 41.5444 15.1459 41.3315 15.1902C41.1479 15.2282 40.9645 15.2671 40.7811 15.3073C40.5677 15.3541 40.3545 15.4029 40.1414 15.4525C39.9592 15.4951 39.7772 15.5379 39.5953 15.5825C39.3809 15.6351 39.167 15.69 38.9531 15.7456C38.773 15.7922 38.5931 15.8388 38.4134 15.8876C38.1976 15.9462 37.9823 16.0074 37.7671 16.0689C37.5901 16.1196 37.413 16.1696 37.2364 16.2221C37.0178 16.2873 36.7997 16.3555 36.5817 16.4236C36.4096 16.4774 36.2375 16.5302 36.0659 16.586C35.8422 16.6585 35.6194 16.7346 35.3965 16.8104C35.2314 16.8666 35.0659 16.9212 34.9012 16.9791C34.6683 17.061 34.4366 17.1469 34.2047 17.2322C34.0514 17.2887 33.8975 17.3432 33.7447 17.4011C33.4868 17.4989 33.2304 17.6011 32.9738 17.7032C32.9278 17.7215 32.8814 17.7389 32.8355 17.7574C32.1708 17.0036 31.1984 16.5275 30.1144 16.5275C29.9527 16.5275 29.7938 16.5392 29.6377 16.5596C29.5872 16.4285 29.5364 16.2974 29.4881 16.1652C29.4563 16.0778 29.4258 15.9898 29.395 15.902C29.3452 15.7602 29.2961 15.6181 29.2489 15.4754C29.2185 15.3832 29.1889 15.2907 29.1595 15.1982C29.1147 15.057 29.0713 14.9153 29.0292 14.7731C29.0165 14.7308 29.0043 14.6884 28.9921 14.646C29.9366 13.9911 30.5556 12.8997 30.5556 11.6633C30.5556 11.5269 30.5475 11.3925 30.5328 11.2601C30.5584 11.2456 30.5836 11.2308 30.6091 11.2163C30.7481 11.1376 30.8865 11.0582 31.0243 10.9784C31.2111 10.87 31.3967 10.7604 31.5817 10.65C31.7174 10.5689 31.8532 10.4877 31.9879 10.4055C32.1737 10.2921 32.3578 10.177 32.5417 10.0615C32.672 9.97957 32.8027 9.89802 32.9321 9.81498C33.1212 9.69373 33.3083 9.57021 33.4953 9.44652C33.6163 9.3665 33.7381 9.2873 33.8583 9.2063C34.0612 9.06942 34.2618 8.92993 34.4623 8.79027C34.5633 8.71986 34.6654 8.65076 34.7658 8.57981C35.0489 8.37927 35.3294 8.17605 35.6073 7.97006C35.6232 7.95825 35.6395 7.94693 35.6554 7.93512C35.9486 7.71715 36.2387 7.49584 36.526 7.27177C36.6195 7.19885 36.7112 7.12396 36.8042 7.05038C36.9967 6.89792 37.1891 6.7454 37.3788 6.59009C37.4899 6.49933 37.5992 6.40659 37.7094 6.31485C37.8785 6.17389 38.0476 6.03284 38.2145 5.88967C38.3303 5.79042 38.4446 5.68963 38.5593 5.58926C38.7179 5.45048 38.8761 5.31148 39.0326 5.17068C39.149 5.06605 39.2643 4.96021 39.3795 4.85436C39.5317 4.7147 39.6831 4.57447 39.8332 4.43295C39.9481 4.32456 40.0623 4.21554 40.176 4.10604ZM28.0324 7.19159C28.0338 7.1313 28.0341 7.07107 28.0359 7.0107C28.0429 6.77734 28.0531 6.54365 28.0664 6.30956C28.0698 6.24966 28.0747 6.18961 28.0786 6.12971C28.0899 5.95339 28.1024 5.77699 28.1173 5.60042C28.1244 5.51535 28.1327 5.43028 28.1406 5.34522C28.1552 5.19016 28.171 5.03493 28.1883 4.87962C28.1981 4.79178 28.2081 4.70395 28.2187 4.61594C28.2384 4.45429 28.2599 4.29247 28.2826 4.13049C28.2933 4.05332 28.3034 3.97616 28.3148 3.89891C28.3498 3.66294 28.3872 3.42681 28.4285 3.19035C28.432 3.16997 28.4363 3.1496 28.4398 3.12939C28.4785 2.91152 28.5198 2.69346 28.5637 2.47526C28.5798 2.39532 28.5973 2.31522 28.614 2.23521C28.6479 2.0742 28.6828 1.91312 28.7195 1.75187C28.7397 1.66361 28.7604 1.57528 28.7813 1.48696C28.8191 1.32782 28.8586 1.16878 28.8992 1.00948C28.9204 0.926289 28.9413 0.843169 28.9633 0.759898C29.0134 0.570211 29.0659 0.380275 29.1201 0.190337C29.1345 0.139991 29.1477 0.0896285 29.1624 0.0392823C29.1651 0.0300709 29.1681 0.0208594 29.1709 0.0115644C29.4503 0.00390487 29.7274 0 30 0C33.2993 0 36.5252 0.528977 39.6127 1.57415C39.539 1.64968 39.466 1.72579 39.3918 1.80075C39.3096 1.88353 39.2276 1.96632 39.1449 2.04862C38.9775 2.21485 38.8084 2.37935 38.6382 2.54297C38.5681 2.61044 38.4986 2.67864 38.4279 2.74569C38.187 2.97433 37.9438 3.20093 37.6973 3.42436C37.6773 3.44253 37.6566 3.46022 37.6365 3.47831C37.4104 3.68258 37.1817 3.88448 36.951 4.08436C36.8701 4.15443 36.7881 4.22345 36.7065 4.29296C36.5328 4.44126 36.3582 4.58858 36.182 4.73426C36.0893 4.81085 35.9963 4.88703 35.903 4.96289C35.7296 5.10402 35.5549 5.24369 35.3791 5.38237C35.2891 5.45342 35.1993 5.52479 35.1086 5.5952C34.9023 5.7554 34.6939 5.91363 34.4844 6.07056C34.425 6.11505 34.3665 6.16052 34.3067 6.20476C34.0383 6.40382 33.767 6.60012 33.4933 6.79388C33.4213 6.84489 33.348 6.89459 33.2756 6.94518C33.0714 7.08803 32.8662 7.22989 32.6591 7.36971C32.5596 7.43685 32.4592 7.50318 32.3591 7.56975C32.1735 7.69303 31.9869 7.81508 31.7991 7.936C31.6946 8.00315 31.5901 8.07029 31.4849 8.13679C31.288 8.26129 31.0895 8.38416 30.8902 8.50606C30.7974 8.56285 30.7051 8.62029 30.6117 8.67659C30.3213 8.85154 30.029 9.02444 29.7336 9.19392C29.7163 9.20387 29.6987 9.21331 29.6814 9.22326C29.6661 9.23205 29.6504 9.24038 29.635 9.24917C29.2079 8.77054 28.656 8.40592 28.0302 8.20652C28.0289 8.12644 28.0269 8.04651 28.0263 7.96632C28.0257 7.88312 28.0249 7.80002 28.0251 7.71674C28.0255 7.54196 28.0283 7.36686 28.0324 7.19159ZM26.8517 0.164105C26.8449 0.189687 26.8389 0.215118 26.8323 0.2407C26.8107 0.322336 26.7909 0.403987 26.77 0.485639C26.7245 0.664729 26.68 0.843669 26.6377 1.02259C26.6153 1.11776 26.5936 1.21295 26.5721 1.30803C26.5338 1.47703 26.4971 1.64594 26.4618 1.81476C26.4421 1.9092 26.4222 2.00363 26.4034 2.098C26.3668 2.281 26.3328 2.46392 26.2997 2.64685C26.2859 2.72328 26.271 2.79988 26.2578 2.87631C26.2137 3.13241 26.1725 3.38826 26.1352 3.64386C26.1277 3.69504 26.1217 3.74621 26.1145 3.79739C26.0855 4.0037 26.0582 4.20977 26.0336 4.41566C26.0228 4.50661 26.0134 4.5972 26.0035 4.68798C25.985 4.85641 25.9676 5.02467 25.9522 5.19276C25.9432 5.28997 25.9349 5.38709 25.9269 5.48423C25.9132 5.65142 25.9014 5.81846 25.8907 5.9855C25.8848 6.07683 25.8785 6.16826 25.8735 6.25959C25.8627 6.45792 25.8546 6.65609 25.848 6.85409C25.8461 6.91129 25.8429 6.96866 25.8415 7.02585C25.8345 7.27893 25.8314 7.53161 25.8314 7.78396C25.8314 7.85584 25.8332 7.92763 25.8337 7.99948C25.8343 8.06737 25.8348 8.13532 25.8358 8.2031C24.3661 8.66658 23.3003 10.0404 23.3003 11.6633C23.3003 11.869 23.3183 12.0704 23.3512 12.2668C23.3309 12.2748 23.3107 12.2828 23.2904 12.2908C23.1526 12.3452 23.0148 12.3996 22.8769 12.4526C22.7832 12.4886 22.6893 12.5236 22.5955 12.559C22.4622 12.6093 22.3289 12.6595 22.1955 12.7086C22.0993 12.7439 22.003 12.7784 21.9069 12.813C21.775 12.8605 21.6431 12.9078 21.511 12.9541C21.414 12.9881 21.3169 13.0215 21.2197 13.0549C21.0882 13.1001 20.9564 13.1449 20.8246 13.1889C20.7272 13.2214 20.6297 13.2535 20.5321 13.2855C20.3998 13.3286 20.2673 13.3713 20.1347 13.4134C20.038 13.4441 19.9413 13.4745 19.8445 13.5046C19.7103 13.5462 19.5761 13.5871 19.4417 13.6274C19.3465 13.6561 19.251 13.6847 19.1556 13.7128C19.0183 13.7532 18.8807 13.7926 18.7432 13.8317C18.6511 13.8578 18.559 13.8842 18.467 13.9098C18.3231 13.9497 18.179 13.9885 18.035 14.0269C17.9491 14.0499 17.8632 14.0734 17.7772 14.0959C17.6219 14.1365 17.4663 14.1757 17.3108 14.2147C17.2361 14.2333 17.1614 14.2527 17.0867 14.2711C16.9059 14.3154 16.725 14.3581 16.5441 14.4001C16.4941 14.4118 16.4442 14.4241 16.3943 14.4355C15.9272 14.5426 15.4596 14.6423 14.9916 14.7344C14.9438 14.7438 14.896 14.7525 14.8482 14.7617C14.6644 14.7973 14.4805 14.8323 14.2966 14.8655C14.2251 14.8784 14.1535 14.8905 14.0819 14.903C13.9218 14.9312 13.7616 14.9592 13.6014 14.9857C13.5198 14.999 13.4382 15.0116 13.3566 15.0246C13.2061 15.0486 13.0556 15.0724 12.9051 15.0948C12.8187 15.1076 12.7322 15.1198 12.6458 15.1322C12.4999 15.153 12.3541 15.1735 12.2082 15.1929C12.1189 15.2048 12.0296 15.2161 11.9403 15.2274C11.7973 15.2456 11.6543 15.2632 11.5113 15.28C11.4205 15.2906 11.3297 15.3008 11.2388 15.3109C11.0969 15.3266 10.9549 15.3416 10.813 15.356C10.7217 15.3652 10.6306 15.3742 10.5394 15.3828C10.3976 15.3962 10.2558 15.4088 10.1139 15.4208C10.0234 15.4285 9.93278 15.4363 9.84217 15.4433C9.69853 15.4547 9.55487 15.4648 9.41131 15.4747C9.32316 15.4807 9.23498 15.4871 9.14691 15.4926C8.99895 15.5018 8.85113 15.5098 8.70334 15.5174C8.61974 15.5218 8.53614 15.5266 8.45263 15.5304C8.29643 15.5377 8.14032 15.5435 7.98428 15.5489C7.90941 15.5516 7.83454 15.5549 7.75973 15.5572C7.58358 15.5625 7.40758 15.566 7.23167 15.5691C7.1769 15.5701 7.12215 15.5718 7.0674 15.5726C6.60493 15.579 6.14318 15.5779 5.68243 15.5691C5.61292 15.5678 5.54359 15.5653 5.47407 15.5635C5.31528 15.5598 5.15655 15.5559 4.99808 15.5502C4.90805 15.547 4.81826 15.5427 4.72838 15.5388C4.59068 15.533 4.45307 15.5274 4.3157 15.5202C4.21661 15.515 4.11761 15.5088 4.01862 15.5029C3.92549 15.4974 3.83236 15.4915 3.73939 15.4854C8.48506 6.909 17.1213 1.18254 26.8517 0.164105ZM2.67381 17.6037C2.75716 17.611 2.84085 17.6167 2.92428 17.6236C2.99769 17.6296 3.07117 17.6355 3.14468 17.6411C3.47907 17.6667 3.81394 17.6895 4.14948 17.7073C4.18826 17.7094 4.22713 17.7107 4.26599 17.7127C4.57431 17.7283 4.88304 17.7401 5.19216 17.7491C5.26469 17.7512 5.33711 17.7538 5.40971 17.7555C5.73904 17.7635 6.06879 17.7678 6.39903 17.7684C6.42584 17.7684 6.45248 17.7694 6.47929 17.7694C6.52279 17.7694 6.56646 17.7678 6.60998 17.7676C6.94861 17.7666 7.28764 17.7626 7.627 17.7538C7.65365 17.7531 7.68028 17.753 7.70685 17.7523C8.06031 17.7425 8.41417 17.7272 8.76828 17.7091C8.84511 17.7052 8.92187 17.7015 8.99861 17.6971C9.34328 17.6778 9.6881 17.6546 10.0331 17.6273C10.1056 17.6216 10.1779 17.6151 10.2505 17.6091C10.592 17.5804 10.9337 17.5488 11.2755 17.5125C11.2993 17.51 11.323 17.5078 11.3468 17.5053C11.7031 17.4669 12.0593 17.4229 12.4156 17.3762C12.4913 17.3662 12.567 17.3565 12.6427 17.3462C12.9893 17.299 13.336 17.248 13.6825 17.1929C13.7534 17.1816 13.8243 17.1697 13.8952 17.1581C14.2442 17.101 14.593 17.041 14.9418 16.9759C14.9581 16.9728 14.9744 16.9702 14.9907 16.9671C15.3502 16.8997 15.7097 16.8267 16.0689 16.7507C16.1403 16.7356 16.2116 16.7208 16.283 16.7054C16.6317 16.6301 16.9803 16.5509 17.3284 16.4676C17.3959 16.4515 17.4634 16.4347 17.5309 16.4183C17.8865 16.3317 18.2418 16.2421 18.5965 16.1473C18.6052 16.145 18.614 16.1429 18.6226 16.1405C18.9832 16.0439 19.3433 15.9416 19.7029 15.8365C19.7707 15.8167 19.8384 15.7972 19.9061 15.777C20.254 15.6738 20.6015 15.5666 20.9482 15.4553C21.0138 15.4343 21.0792 15.4128 21.1447 15.3914C21.5027 15.275 21.8602 15.1556 22.2169 15.0308C22.2196 15.0299 22.2223 15.029 22.2251 15.028C22.5835 14.9025 22.941 14.7714 23.2978 14.6373C23.3633 14.6127 23.4288 14.5884 23.4942 14.5636C23.7836 14.4536 24.0725 14.3416 24.3606 14.2261C25.0097 14.8764 25.9044 15.281 26.8935 15.2902C26.9612 15.5215 27.0325 15.7515 27.1064 15.9807C27.1271 16.0451 27.1493 16.109 27.1706 16.1732C27.2304 16.354 27.2918 16.5341 27.3555 16.7136C27.3842 16.7941 27.4134 16.8743 27.4428 16.9546C27.5054 17.1252 27.57 17.2952 27.6361 17.4645C27.6401 17.4749 27.6439 17.4855 27.6479 17.4959C26.9339 18.1584 26.4867 19.1044 26.4867 20.1553C26.4867 20.3737 26.5072 20.5874 26.5441 20.7952C26.5053 20.8173 26.4671 20.8402 26.4283 20.8625C26.2397 20.9707 26.0514 21.0793 25.8646 21.1897C25.7429 21.2616 25.6221 21.3346 25.5012 21.4074C25.323 21.5148 25.1455 21.6228 24.9691 21.7322C24.8466 21.8082 24.7247 21.8846 24.6032 21.9615C24.4292 22.0715 24.2562 22.1825 24.0841 22.2944C23.9645 22.3721 23.845 22.4499 23.7263 22.5285C23.5515 22.6443 23.3782 22.7616 23.2053 22.8793C23.0925 22.9561 22.9793 23.0326 22.8672 23.1103C22.6833 23.2379 22.5012 23.3675 22.3193 23.4974C22.2214 23.5675 22.1225 23.6365 22.0252 23.7071C21.7937 23.8753 21.5645 24.0458 21.3364 24.2176C21.291 24.2519 21.2447 24.2852 21.1995 24.3195C20.9272 24.5262 20.6577 24.7359 20.3905 24.948C20.3113 25.011 20.2336 25.0754 20.1547 25.1389C19.9675 25.2895 19.7806 25.4406 19.5959 25.594C19.4968 25.6762 19.3989 25.76 19.3005 25.8431C19.1382 25.9802 18.9762 26.1176 18.8159 26.2567C18.7118 26.3471 18.6088 26.4384 18.5056 26.5296C18.3526 26.6648 18.2003 26.8005 18.0493 26.9376C18.037 26.9487 18.0245 26.9596 18.0122 26.9707C17.3764 26.4208 16.5481 26.0876 15.6415 26.0876C14.5068 26.0876 13.494 26.6089 12.8288 27.4248C12.7775 27.4074 12.7255 27.3915 12.674 27.3743C12.4546 27.301 12.2333 27.2309 12.0115 27.1615C11.8944 27.1248 11.778 27.0869 11.6603 27.0513C11.391 26.97 11.1195 26.8928 10.8471 26.8172C10.7752 26.7973 10.7042 26.7757 10.6321 26.7561C10.2823 26.6614 9.93009 26.5713 9.5755 26.486C9.51886 26.4724 9.46142 26.4605 9.40471 26.4471C9.1096 26.3776 8.81342 26.3105 8.51521 26.2476C8.40284 26.2239 8.28942 26.2025 8.17667 26.1797C7.93205 26.1303 7.68697 26.082 7.44041 26.037C7.31053 26.0133 7.17992 25.9915 7.04948 25.9691C6.81702 25.9291 6.58407 25.8904 6.34998 25.8543C6.2131 25.8332 6.07589 25.8132 5.93852 25.7935C5.70736 25.7603 5.47554 25.729 5.24293 25.6996C5.10457 25.6821 4.96622 25.665 4.82739 25.6489C4.59028 25.6213 4.35228 25.5966 4.11379 25.5729C3.97984 25.5597 3.84605 25.546 3.7116 25.534C3.45756 25.5114 3.20237 25.4923 2.94692 25.4743C2.82773 25.4659 2.70909 25.4559 2.58956 25.4486C2.28067 25.4293 1.97056 25.4144 1.6598 25.4016C1.59323 25.399 1.52715 25.3946 1.4605 25.3922C1.09418 25.379 0.726698 25.37 0.358101 25.366C0.774206 22.6782 1.55055 20.0753 2.67381 17.6037ZM7.39168 41.9607C7.30906 42.1682 7.22865 42.376 7.15036 42.5841C7.13145 42.6342 7.11353 42.6848 7.09479 42.735C7.03628 42.8929 6.97851 43.051 6.92245 43.2092C6.89686 43.2815 6.87193 43.3537 6.84692 43.4259C6.7986 43.5653 6.7511 43.7046 6.70481 43.8443C6.67988 43.9194 6.65504 43.9943 6.63068 44.0696C6.58407 44.213 6.53893 44.3566 6.49444 44.5002C6.47358 44.5678 6.45224 44.6351 6.43178 44.7027C6.3745 44.8919 6.31901 45.0813 6.2654 45.2708C6.25962 45.2912 6.25343 45.3116 6.24764 45.3319C6.18874 45.542 6.13235 45.7522 6.07784 45.9626C6.06162 46.0249 6.04655 46.0875 6.03075 46.1497C5.99319 46.2983 5.95644 46.447 5.92115 46.5956C5.90314 46.6715 5.8857 46.7476 5.8682 46.8236C5.83649 46.9619 5.80571 47.1004 5.77596 47.239C5.7595 47.3152 5.74305 47.3915 5.72723 47.4678C5.71852 47.5101 5.70882 47.5525 5.70026 47.5949C2.00919 42.4987 0 36.339 0 30.001C0 29.1948 0.0336408 28.3767 0.100138 27.5586C0.129457 27.5587 0.159043 27.558 0.188378 27.5582C0.302851 27.559 0.416755 27.5622 0.530994 27.5639C0.771035 27.5676 1.01091 27.5723 1.2498 27.5801C1.38244 27.5846 1.5146 27.5905 1.64693 27.5961C1.86823 27.6056 2.0892 27.6163 2.30943 27.6292C2.44558 27.6373 2.58141 27.6459 2.71716 27.6553C2.93674 27.6703 3.15568 27.6877 3.37421 27.7063C3.50465 27.7175 3.63526 27.7281 3.76538 27.7405C4.00102 27.763 4.23544 27.7886 4.46969 27.8151C4.57935 27.8275 4.68952 27.8385 4.79887 27.8518C5.14042 27.8935 5.48068 27.9385 5.81882 27.9889C5.8277 27.9902 5.83641 27.9918 5.84531 27.9931C6.17447 28.0423 6.5017 28.0962 6.82745 28.1535C6.93793 28.173 7.04745 28.1947 7.15751 28.2151C7.38167 28.2566 7.60541 28.2991 7.82776 28.3445C7.95503 28.3705 8.08157 28.3981 8.20827 28.4254C8.41344 28.4695 8.61795 28.515 8.82157 28.5625C8.95121 28.5927 9.08058 28.6236 9.20957 28.6552C9.41213 28.7048 9.61363 28.7564 9.81447 28.8094C9.93849 28.842 10.0627 28.8743 10.1859 28.9082C10.4021 28.9676 10.6166 29.03 10.8306 29.0934C10.9346 29.1241 11.0393 29.1535 11.1428 29.1852C11.4384 29.2756 11.7319 29.3697 12.0233 29.4674C12.0177 29.5494 12.0138 29.6319 12.0138 29.7153C12.0138 30.7069 12.4122 31.6054 13.0571 32.2603C13.037 32.2856 13.0176 32.3111 12.9976 32.3366C12.8796 32.4862 12.7632 32.6368 12.6477 32.7875C12.6188 32.8253 12.5892 32.8628 12.5605 32.9008C12.4176 33.0887 12.2767 33.2775 12.1375 33.4671C12.0979 33.5212 12.0591 33.5757 12.0198 33.6298C11.9201 33.7671 11.821 33.9046 11.7233 34.0428C11.6739 34.1125 11.6252 34.1825 11.5763 34.2524C11.4886 34.378 11.4016 34.504 11.3156 34.6301C11.2667 34.7018 11.2179 34.7735 11.1697 34.8452C11.0808 34.9776 10.9931 35.1101 10.9061 35.2429C10.8644 35.3064 10.8224 35.3698 10.7811 35.4335C10.66 35.6206 10.5404 35.8083 10.4228 35.9967C10.4177 36.005 10.4123 36.0134 10.4071 36.0217C10.2847 36.2182 10.1647 36.4156 10.0463 36.6134C10.0087 36.676 9.97213 36.7389 9.93505 36.8018C9.85398 36.9387 9.77365 37.0759 9.69452 37.2136C9.65249 37.2868 9.61102 37.3599 9.56954 37.4331C9.49532 37.5643 9.42198 37.6956 9.34947 37.8273C9.30962 37.8997 9.26978 37.9719 9.23043 38.0445C9.15197 38.1891 9.07489 38.3341 8.99861 38.4793C8.96848 38.5367 8.93767 38.5937 8.90785 38.6513C8.80291 38.8533 8.69975 39.0559 8.59888 39.2591C8.58268 39.2919 8.56711 39.3248 8.55097 39.3575C8.46672 39.5285 8.38378 39.6999 8.30247 39.8715C8.27028 39.9395 8.23891 40.0078 8.20714 40.0759C8.14268 40.2141 8.07897 40.3524 8.01647 40.491C7.98281 40.5658 7.94949 40.6404 7.91633 40.7152C7.85539 40.8527 7.79559 40.9906 7.73652 41.1285C7.70636 41.1989 7.67606 41.2693 7.64639 41.3397C7.57827 41.5018 7.51163 41.6643 7.44611 41.8269C7.42819 41.8716 7.40945 41.9161 7.39168 41.9607ZM13.9195 53.7495C13.7759 53.7743 13.6323 53.7984 13.4886 53.8217C13.3555 53.8432 13.2225 53.8641 13.0894 53.8844C12.9446 53.9065 12.7999 53.928 12.6551 53.9488C12.5232 53.9677 12.3914 53.986 12.2595 54.0036C12.1866 54.0134 12.1136 54.0225 12.0407 54.0319C10.4043 52.8068 8.89294 51.4154 7.53836 49.8866C7.5421 49.8579 7.54535 49.8293 7.54927 49.8004C7.5619 49.7082 7.57584 49.6158 7.58935 49.5234C7.60639 49.4077 7.62341 49.2921 7.64198 49.1766C7.6569 49.0834 7.67287 48.9903 7.68876 48.8971C7.70831 48.7822 7.72821 48.6672 7.7493 48.5523C7.76642 48.4589 7.78442 48.3655 7.80251 48.2722C7.82484 48.1571 7.84757 48.042 7.87128 47.927C7.8905 47.8341 7.91031 47.7415 7.93043 47.6487C7.95553 47.5329 7.98135 47.4169 8.008 47.3012C8.0291 47.2093 8.05061 47.1172 8.07269 47.0253C8.10072 46.9085 8.12964 46.7918 8.15915 46.6751C8.18204 46.5843 8.20517 46.4937 8.22905 46.403C8.2601 46.285 8.29219 46.1668 8.32478 46.0488C8.34948 45.9595 8.37401 45.8704 8.3995 45.7811C8.4339 45.661 8.46957 45.541 8.50552 45.4209C8.5315 45.3341 8.55716 45.2472 8.58398 45.1605C8.62202 45.0373 8.66154 44.9144 8.70122 44.7914C8.7281 44.7081 8.7545 44.6247 8.78213 44.5414C8.82474 44.413 8.86907 44.2848 8.91356 44.1565C8.94044 44.0789 8.96659 44.0012 8.99406 43.9236C9.0431 43.7854 9.0942 43.6474 9.14527 43.5095C9.17022 43.4422 9.19425 43.3748 9.21966 43.3076C9.28054 43.1465 9.34368 42.9856 9.40739 42.8246C9.42475 42.7809 9.44122 42.7369 9.4588 42.6932C9.62446 42.2803 9.79923 41.8686 9.98304 41.4588C10.0028 41.415 10.0235 41.3713 10.0433 41.3274C10.1154 41.1686 10.1881 41.0097 10.2628 40.8511C10.294 40.7853 10.3264 40.7196 10.3579 40.6538C10.4232 40.5178 10.4885 40.3818 10.5558 40.2462C10.5928 40.1715 10.6311 40.0971 10.6688 40.0224C10.7326 39.896 10.7965 39.7697 10.862 39.6437C10.9031 39.5647 10.9453 39.4858 10.987 39.4069C11.0512 39.286 11.1154 39.1649 11.1811 39.0443C11.2254 38.9627 11.2708 38.8814 11.316 38.8C11.381 38.6827 11.4463 38.5654 11.5129 38.4484C11.5602 38.3651 11.6084 38.2822 11.6566 38.199C11.723 38.0845 11.7897 37.9701 11.8575 37.8558C11.9075 37.7717 11.9581 37.6877 12.0089 37.6039C12.0769 37.4913 12.1455 37.379 12.2149 37.2669C12.2673 37.1823 12.3202 37.0977 12.3734 37.0133C12.4431 36.9027 12.5135 36.7923 12.5846 36.6822C12.6393 36.5974 12.6942 36.5127 12.7496 36.4283C12.8215 36.3188 12.8943 36.2094 12.9675 36.1004C13.0241 36.0161 13.0807 35.9319 13.138 35.8479C13.2121 35.7394 13.2873 35.6314 13.3626 35.5233C13.421 35.4396 13.4793 35.3558 13.5386 35.2724C13.6152 35.1643 13.6931 35.0568 13.771 34.9494C13.8307 34.8671 13.8901 34.7845 13.9506 34.7025C14.0303 34.5943 14.1114 34.4867 14.1924 34.3792C14.2532 34.2983 14.3136 34.2173 14.3751 34.137C14.4584 34.0281 14.5431 33.9199 14.6277 33.8117C14.6889 33.7335 14.7493 33.6549 14.8112 33.577C14.8868 33.4819 14.964 33.3874 15.0406 33.2925C15.2362 33.3253 15.4367 33.343 15.6415 33.343C16.6356 33.343 17.5359 32.943 18.1912 32.2953C18.2406 32.325 18.2898 32.355 18.339 32.385C18.4207 32.4347 18.5027 32.4842 18.5837 32.5347C18.6664 32.5862 18.7481 32.6389 18.83 32.6912C18.9097 32.742 18.9898 32.7924 19.0688 32.8437C19.1504 32.897 19.2308 32.9513 19.3116 33.0052C19.3896 33.0572 19.4682 33.1087 19.5454 33.1613C19.627 33.2169 19.7073 33.2736 19.7881 33.33C19.8628 33.3822 19.9383 33.4337 20.0124 33.4865C20.1016 33.5498 20.1894 33.6147 20.2776 33.6791C20.3975 33.7668 20.5165 33.8551 20.6346 33.9442C20.7274 34.0143 20.8207 34.0842 20.9123 34.1553C20.9822 34.2095 21.0507 34.2649 21.1199 34.3197C21.1975 34.3811 21.2757 34.4421 21.3525 34.5043C21.4226 34.5612 21.4915 34.6192 21.5609 34.6767C21.6352 34.738 21.71 34.7993 21.7835 34.8614C21.8531 34.9202 21.9214 34.98 21.9902 35.0395C22.0619 35.1014 22.134 35.163 22.2048 35.2256C22.2737 35.2865 22.3415 35.3483 22.4096 35.4098C22.4788 35.4723 22.5484 35.5346 22.6168 35.5976C22.6843 35.6599 22.7508 35.7231 22.8176 35.786C22.8853 35.8497 22.953 35.9133 23.0199 35.9775C23.0854 36.0407 23.1501 36.1048 23.2151 36.1687C23.2813 36.2338 23.3477 36.299 23.4132 36.3649C23.4771 36.4292 23.5403 36.4943 23.6036 36.5593C23.6683 36.6258 23.733 36.6924 23.7969 36.7596C23.8592 36.8249 23.9207 36.8909 23.9821 36.9569C24.0453 37.0249 24.1085 37.093 24.171 37.1616C24.2315 37.2281 24.2913 37.2951 24.3511 37.362C24.4127 37.4315 24.4742 37.5007 24.535 37.5706C24.5939 37.6381 24.652 37.7061 24.7101 37.7742C24.7704 37.8449 24.8303 37.916 24.8897 37.9873C24.9466 38.0556 25.003 38.1242 25.0589 38.1932C25.1179 38.2654 25.1763 38.338 25.2343 38.4109C25.2893 38.4801 25.344 38.5496 25.3981 38.6192C25.4555 38.6931 25.5123 38.7673 25.5688 38.8418C25.6219 38.9115 25.6748 38.9817 25.7271 39.0521C25.7832 39.1279 25.8387 39.2039 25.894 39.2803C25.9448 39.3504 25.9955 39.4206 26.0455 39.4913C26.1004 39.5691 26.1547 39.6473 26.2087 39.7255C26.2575 39.7962 26.3062 39.8668 26.3542 39.938C26.4078 40.0174 26.4604 40.0976 26.513 40.1776C26.5597 40.2486 26.6066 40.3197 26.6526 40.3914C26.7049 40.4729 26.7562 40.555 26.8075 40.6371C26.8521 40.7083 26.8967 40.7794 26.9405 40.8509C26.9916 40.9349 27.0416 41.0195 27.0918 41.104C27.134 41.1751 27.1765 41.246 27.2181 41.3175C27.2683 41.4042 27.3171 41.4916 27.3663 41.5789C27.4059 41.6493 27.446 41.7194 27.4848 41.7901C27.5345 41.8805 27.5828 41.972 27.6314 42.0632C27.668 42.1318 27.7052 42.2003 27.7412 42.2694C27.7914 42.366 27.84 42.4635 27.889 42.5608C27.9215 42.6255 27.9547 42.6895 27.9866 42.7545C28.0402 42.8635 28.092 42.9735 28.144 43.0835C28.1697 43.1378 28.1961 43.1916 28.2214 43.2462C28.2978 43.4111 28.3725 43.577 28.4453 43.7439C28.526 43.9292 28.6039 44.1158 28.68 44.3033C28.7045 44.3636 28.7277 44.4242 28.7516 44.4849C28.8025 44.6131 28.8528 44.7417 28.9014 44.8711C28.9282 44.9425 28.9542 45.014 28.9804 45.0856C29.0001 45.1397 29.019 45.1941 29.0384 45.2484C27.5018 45.6699 26.3724 47.0758 26.3724 48.7464C26.3724 49.0811 26.4187 49.4051 26.5036 49.7129C26.4228 49.7515 26.3422 49.7905 26.2614 49.8288C26.1044 49.9031 25.9469 49.9759 25.7893 50.0484C25.7209 50.0799 25.6527 50.112 25.5842 50.1431C25.3581 50.246 25.1315 50.3472 24.9041 50.4462C24.639 50.5618 24.3732 50.6747 24.1069 50.7854C24.0259 50.8189 23.9445 50.851 23.8633 50.8841C23.6781 50.9601 23.4927 51.036 23.3068 51.1093C23.206 51.1491 23.1048 51.1871 23.0037 51.2262C22.8369 51.2909 22.6702 51.3559 22.503 51.4185C22.3928 51.4599 22.2821 51.4993 22.1717 51.5397C22.0135 51.5977 21.8554 51.6563 21.6968 51.7125C21.5803 51.7537 21.4634 51.7933 21.3468 51.8337C21.1936 51.8867 21.0405 51.9401 20.887 51.9916C20.7664 52.032 20.6454 52.0707 20.5246 52.1099C20.3747 52.1588 20.225 52.2082 20.0748 52.2555C19.9507 52.2946 19.8264 52.3321 19.7021 52.37C19.5548 52.4153 19.4075 52.4606 19.2599 52.5043C19.1332 52.5418 19.0063 52.5778 18.8794 52.6141C18.7337 52.6559 18.5881 52.6979 18.4423 52.7382C18.3134 52.7739 18.1842 52.8079 18.0551 52.8425C17.911 52.8809 17.7669 52.9195 17.6226 52.9567C17.4917 52.9903 17.3607 53.0227 17.2296 53.0551C17.0866 53.0907 16.9436 53.126 16.8004 53.1601C16.6684 53.1915 16.5362 53.2217 16.4041 53.252C16.2613 53.2846 16.1185 53.3172 15.9755 53.3485C15.8425 53.3776 15.7092 53.4055 15.5761 53.4335C15.4339 53.4634 15.2917 53.4928 15.1494 53.5214C15.0158 53.5481 14.882 53.5738 14.7483 53.5993C14.6055 53.6265 14.4626 53.6534 14.3197 53.6793C14.1864 53.7034 14.0529 53.7267 13.9195 53.7495ZM30.4449 53.8848C30.444 53.9378 30.4418 53.9909 30.4406 54.044C30.4366 54.2221 30.4312 54.4006 30.4234 54.5792C30.42 54.6592 30.4156 54.7392 30.4115 54.8194C30.4032 54.9752 30.3939 55.1313 30.3829 55.2874C30.3771 55.3695 30.3712 55.4517 30.3647 55.5338C30.3513 55.7017 30.3359 55.8697 30.3194 56.0379C30.3129 56.1039 30.3073 56.1697 30.3002 56.2355C30.2756 56.4674 30.2482 56.6996 30.2175 56.932C30.2116 56.9764 30.2045 57.0208 30.1985 57.0652C30.1724 57.255 30.1445 57.445 30.1144 57.6354C30.1019 57.7143 30.0883 57.7931 30.0751 57.8722C30.0484 58.0317 30.0204 58.1916 29.9908 58.3515C29.9756 58.4337 29.9602 58.516 29.9442 58.5985C29.9115 58.767 29.8767 58.9357 29.8408 59.1045C29.8263 59.1728 29.8126 59.2411 29.7974 59.3094C29.7468 59.5395 29.6935 59.7696 29.6369 60C24.3361 59.9376 19.2425 58.5076 14.7363 55.8337C14.9445 55.7959 15.1524 55.7561 15.3602 55.7155C15.3791 55.7119 15.3979 55.7085 15.4167 55.7049C15.6885 55.6515 15.9601 55.5952 16.2314 55.5372C16.3019 55.5221 16.3724 55.5061 16.4429 55.4908C16.6433 55.4468 16.8436 55.4018 17.0435 55.3555C17.1297 55.3355 17.2158 55.3151 17.3019 55.2946C17.496 55.2485 17.69 55.201 17.8837 55.1523C17.9612 55.1329 18.0386 55.1139 18.116 55.0941C18.3771 55.0273 18.638 54.9587 18.8984 54.8875C18.9039 54.886 18.9095 54.8846 18.9151 54.8831C19.1851 54.8091 19.4546 54.7324 19.7238 54.6536C19.7938 54.6333 19.8636 54.6119 19.9335 54.5912C20.1319 54.5322 20.33 54.4723 20.5279 54.4108C20.6118 54.3848 20.6957 54.3584 20.7795 54.3318C20.9734 54.2705 21.1671 54.2078 21.3606 54.1441C21.4349 54.1194 21.5094 54.0953 21.5836 54.0704C22.1135 53.8931 22.6413 53.7065 23.1672 53.5108C23.2404 53.4834 23.3134 53.4554 23.3864 53.4278C23.5771 53.356 23.7675 53.2829 23.9575 53.2086C24.0435 53.1749 24.1294 53.141 24.2152 53.1069C24.4012 53.033 24.5869 52.9577 24.7723 52.8816C24.8501 52.8495 24.9279 52.818 25.0057 52.7856C25.2644 52.6779 25.5227 52.5684 25.7803 52.4561C26.1161 52.3097 26.4503 52.158 26.7836 52.004C26.869 51.9646 26.9543 51.925 27.0395 51.8851C27.2651 51.7793 27.4898 51.6717 27.714 51.5626C28.338 52.0697 29.1333 52.3741 30 52.3741C30.1428 52.3741 30.2834 52.365 30.4219 52.3489C30.4243 52.402 30.427 52.4548 30.4291 52.5079C30.4354 52.6774 30.4398 52.8474 30.4428 53.0175C30.4439 53.0778 30.4459 53.1381 30.4466 53.1985C30.449 53.4268 30.4485 53.6555 30.4449 53.8848ZM31.2547 44.9438C31.2414 44.9043 31.2287 44.8649 31.2153 44.8255C31.147 44.6262 31.0761 44.4278 31.003 44.2303C30.9848 44.1811 30.9659 44.1322 30.9473 44.083C30.8891 43.9285 30.8295 43.7745 30.7683 43.6212C30.7459 43.5651 30.7237 43.5089 30.7009 43.453C30.6211 43.2569 30.5398 43.0615 30.4553 42.8676C30.3772 42.6887 30.2971 42.5107 30.2153 42.3339C30.188 42.2751 30.1595 42.2167 30.1318 42.1581C30.0763 42.0404 30.0208 41.9229 29.9637 41.8062C29.9295 41.7366 29.8942 41.6679 29.8595 41.5986C29.8071 41.494 29.7547 41.3894 29.7009 41.2856C29.6627 41.2119 29.6235 41.1389 29.5847 41.0657C29.5325 40.9673 29.4803 40.8689 29.4267 40.7713C29.3857 40.696 29.3436 40.6213 29.3018 40.5467C29.2488 40.4518 29.1956 40.3573 29.1414 40.2633C29.0979 40.1878 29.0535 40.1125 29.0093 40.0376C28.9549 39.9454 28.9001 39.8534 28.8446 39.762C28.799 39.6867 28.7529 39.6118 28.7065 39.537C28.6505 39.4468 28.5942 39.3571 28.5371 39.2677C28.4895 39.193 28.4416 39.1185 28.3932 39.0442C28.3351 38.9552 28.2764 38.8667 28.2172 38.7784C28.1684 38.7055 28.1196 38.6325 28.07 38.5602C28.0093 38.4715 27.9477 38.3835 27.886 38.2955C27.836 38.2245 27.7862 38.1532 27.7355 38.0825C27.672 37.9939 27.6073 37.906 27.5425 37.8182C27.4921 37.7496 27.442 37.681 27.3909 37.6128C27.3228 37.5222 27.2534 37.4326 27.1842 37.3428C27.1346 37.2788 27.0857 37.2141 27.0356 37.1504C26.9587 37.0527 26.8803 36.9563 26.8021 36.8595C26.758 36.805 26.7146 36.75 26.6699 36.6957C26.5476 36.5469 26.4237 36.3994 26.2979 36.2531C26.2673 36.2176 26.2357 36.1825 26.2049 36.1472C26.1078 36.0355 26.0105 35.9241 25.9115 35.8139C25.8596 35.7562 25.8066 35.6995 25.7543 35.6421C25.6748 35.5553 25.5955 35.4681 25.5148 35.3822C25.4562 35.3198 25.3966 35.2583 25.3374 35.1964C25.2613 35.1167 25.1852 35.0369 25.1078 34.958C25.0457 34.8946 24.9825 34.8319 24.9197 34.769C24.8435 34.6929 24.7674 34.6168 24.6903 34.5413C24.6256 34.4779 24.5601 34.4153 24.4945 34.3526C24.4177 34.2789 24.3406 34.2054 24.2629 34.1326C24.1958 34.0699 24.1283 34.0076 24.0606 33.9454C23.9826 33.8738 23.9042 33.8024 23.8253 33.7315C23.7564 33.6698 23.6872 33.6083 23.6177 33.5472C23.538 33.477 23.4577 33.4073 23.3771 33.338C23.3068 33.2775 23.2363 33.2174 23.1654 33.1576C23.0836 33.0887 23.0013 33.0204 22.9186 32.9522C22.8473 32.8934 22.7758 32.8346 22.7038 32.7764C22.6193 32.7081 22.534 32.6407 22.4485 32.5734C22.3769 32.5168 22.3054 32.4601 22.2331 32.404C22.1445 32.3356 22.055 32.268 21.9654 32.2003C21.8946 32.1469 21.8242 32.0931 21.7528 32.04C21.6582 31.9699 21.5623 31.9008 21.4667 31.8317C21.3988 31.7825 21.3315 31.733 21.263 31.6844C21.1545 31.6073 21.0445 31.5315 20.9346 31.4557C20.8776 31.4163 20.8212 31.3762 20.7638 31.3373C20.5974 31.224 20.4296 31.1124 20.2602 31.0021C20.2122 30.9708 20.163 30.9403 20.1148 30.9093C19.991 30.8298 19.8673 30.7503 19.742 30.6722C19.6734 30.6295 19.6038 30.588 19.5348 30.5456C19.4284 30.4806 19.3221 30.4152 19.2145 30.351L19.2127 30.3501C19.2491 30.1437 19.2692 29.932 19.2692 29.7153C19.2692 29.429 19.235 29.1508 19.1723 28.8837C19.1845 28.8723 19.1965 28.8607 19.2088 28.8494C19.2842 28.7797 19.3587 28.7092 19.4345 28.6401C19.6687 28.4264 19.9049 28.2147 20.144 28.006C20.1669 27.9859 20.1905 27.9664 20.2135 27.9463C20.4309 27.7573 20.6503 27.5701 20.8717 27.3849C20.9563 27.3142 21.0421 27.2446 21.1273 27.1745C21.2896 27.0407 21.4525 26.9075 21.617 26.7759C21.7146 26.6977 21.813 26.6204 21.9114 26.5431C22.0672 26.4203 22.2238 26.2986 22.3815 26.1778C22.4832 26.1 22.5851 26.0225 22.6875 25.9454C22.8482 25.8245 23.0101 25.7049 23.1726 25.586C23.2715 25.5136 23.3701 25.4409 23.4698 25.3692C23.6539 25.2367 23.84 25.106 24.0265 24.976C24.1048 24.9214 24.1824 24.8658 24.2612 24.8116C24.5252 24.6299 24.7914 24.4507 25.0599 24.2739C25.1232 24.2324 25.1875 24.192 25.251 24.1507C25.4595 24.015 25.6688 23.8802 25.88 23.7474C25.9805 23.6843 26.082 23.6224 26.1831 23.5599C26.3605 23.4503 26.5385 23.3413 26.7177 23.2337C26.828 23.1676 26.939 23.1021 27.05 23.0367C27.2213 22.9359 27.3936 22.8359 27.5665 22.737C28.2216 23.3836 29.1212 23.783 30.1144 23.783C30.4497 23.783 30.774 23.7366 31.0823 23.6514C31.1634 23.7596 31.2453 23.8672 31.3281 23.9742C31.3478 23.9998 31.3669 24.0257 31.3868 24.0512C31.5172 24.2187 31.65 24.3846 31.7845 24.549C31.8244 24.5977 31.8655 24.6456 31.9056 24.6941C32.0014 24.8093 32.0974 24.9243 32.195 25.0381C32.2473 25.0989 32.3006 25.1588 32.3534 25.2191C32.4409 25.3192 32.5288 25.4193 32.6179 25.5181C32.6755 25.5819 32.7339 25.6451 32.792 25.7085C32.8788 25.8029 32.9661 25.8971 33.0544 25.9904C33.1145 26.054 33.1752 26.1172 33.236 26.1803C33.3247 26.2723 33.4141 26.3636 33.5042 26.4545C33.5657 26.5166 33.6274 26.5785 33.6897 26.64C33.7823 26.7316 33.8758 26.8222 33.9697 26.9125C34.0306 26.971 34.0912 27.0297 34.1527 27.0876C34.2533 27.1825 34.3552 27.2764 34.4575 27.3699C34.5139 27.4216 34.5698 27.4737 34.6267 27.5249C34.7471 27.6333 34.8692 27.7403 34.9917 27.8468C35.0318 27.8816 35.0712 27.9171 35.1114 27.9517C35.2762 28.0933 35.443 28.2333 35.6116 28.3716C35.6366 28.392 35.6621 28.4119 35.6872 28.4323C35.8302 28.5486 35.9741 28.6641 36.1197 28.7779C36.1759 28.8219 36.2331 28.8649 36.2897 28.9086C36.4058 28.9979 36.5221 29.0871 36.6398 29.1749C36.7057 29.2241 36.7724 29.2725 36.8389 29.3212C36.9493 29.4021 37.0601 29.4827 37.1719 29.5623C37.2424 29.6125 37.3135 29.6621 37.3845 29.7117C37.4945 29.7886 37.6051 29.8648 37.7165 29.9404C37.7894 29.9898 37.8626 30.039 37.9361 30.0879C38.0486 30.1628 38.1619 30.2368 38.2757 30.3103C38.3487 30.3575 38.4214 30.4046 38.495 30.4511C38.6136 30.5264 38.7332 30.6005 38.8534 30.6742C38.9233 30.7172 38.9928 30.7605 39.0633 30.8031C39.1958 30.8831 39.3297 30.9617 39.4638 31.0399C39.5229 31.0744 39.5814 31.1095 39.6409 31.1437C39.8317 31.2532 40.024 31.3612 40.2181 31.4675C40.2215 31.4693 40.2248 31.4712 40.2282 31.4732C40.4277 31.5821 40.6291 31.689 40.8322 31.7944C40.8883 31.8236 40.9454 31.8518 41.0019 31.8806C41.1475 31.9551 41.2934 32.0292 41.4407 32.1017C41.5153 32.1384 41.5906 32.1743 41.6655 32.2104C41.7968 32.2738 41.9282 32.3371 42.0608 32.3988C42.1427 32.4371 42.2253 32.4748 42.3076 32.5124C42.4352 32.5708 42.5633 32.6286 42.6921 32.6856C42.7778 32.7234 42.8639 32.7609 42.9501 32.7982C43.0782 32.8537 43.2069 32.9082 43.3362 32.9623C43.4232 32.9987 43.5103 33.035 43.5979 33.0707C43.6604 33.0963 43.7225 33.1222 43.7853 33.1475C43.7818 33.2122 43.7799 33.2774 43.7799 33.343C43.7799 33.9004 43.9059 34.4281 44.1303 34.8998C44.0144 35.0701 43.8991 35.2409 43.7801 35.4098C43.7427 35.4627 43.7052 35.5158 43.6675 35.5688C43.477 35.8361 43.2832 36.1017 43.0853 36.365C43.0515 36.41 43.0172 36.4547 42.9832 36.4995C42.7753 36.7738 42.5646 37.0466 42.3488 37.3164C42.3444 37.322 42.3399 37.3273 42.3355 37.3329C42.1216 37.6 41.9029 37.8645 41.6814 38.1273C41.645 38.1703 41.609 38.2139 41.5724 38.2569C41.3574 38.5098 41.1385 38.7603 40.9166 39.009C40.8714 39.0595 40.8262 39.1098 40.7809 39.16C40.5568 39.4086 40.3297 39.6553 40.0988 39.8994C40.0623 39.938 40.0253 39.9761 39.9886 40.0144C39.7556 40.2589 39.5198 40.5014 39.28 40.7413C39.265 40.7563 39.2503 40.7714 39.2353 40.7864C38.9888 41.0323 38.7376 41.275 38.484 41.5157C38.4391 41.5584 38.3945 41.6012 38.3495 41.6436C38.1033 41.8753 37.8538 42.1046 37.6012 42.3315C37.5513 42.3764 37.5011 42.4211 37.451 42.4658C37.1935 42.695 36.9332 42.9224 36.6692 43.1466C36.6353 43.1755 36.6008 43.2038 36.5669 43.2325C36.305 43.4535 36.0403 43.6722 35.7723 43.8881C35.7472 43.9083 35.7226 43.9288 35.6975 43.9489C35.4218 44.1702 35.142 44.3881 34.8598 44.6038C34.8093 44.6423 34.7589 44.6811 34.7082 44.7195C34.4313 44.9294 34.1514 45.1366 33.8685 45.3411C33.8176 45.3779 33.7663 45.4144 33.715 45.4512C33.4233 45.6603 33.1291 45.8671 32.8311 46.0705C32.8068 46.0871 32.782 46.1034 32.7576 46.12C32.7069 46.1544 32.6548 46.1875 32.6039 46.2217C32.2659 45.8732 31.8589 45.5917 31.4043 45.4006C31.3558 45.2479 31.3059 45.0955 31.2547 44.9438ZM31.904 59.9404C31.9135 59.8983 31.9218 59.8563 31.9311 59.814C31.9518 59.7203 31.9713 59.6268 31.9912 59.5331C32.0265 59.3667 32.0605 59.2003 32.093 59.0341C32.1118 58.9371 32.1304 58.8404 32.1482 58.7437C32.1794 58.5747 32.2087 58.406 32.2371 58.2374C32.252 58.1478 32.2677 58.0581 32.2818 57.9685C32.3139 57.7654 32.3433 57.5627 32.3712 57.36C32.3785 57.3069 32.3869 57.2537 32.3939 57.2008C32.4275 56.9462 32.4574 56.692 32.4841 56.4381C32.4916 56.3674 32.4973 56.2968 32.5042 56.2261C32.5223 56.0414 32.5392 55.8568 32.5537 55.6726C32.5609 55.5806 32.5669 55.4887 32.5733 55.3969C32.5845 55.2318 32.5947 55.0671 32.6031 54.9023C32.608 54.8072 32.6126 54.712 32.6164 54.617C32.6233 54.4499 32.6282 54.2831 32.6321 54.1164C32.6341 54.0283 32.6367 53.9404 32.638 53.8525C32.6407 53.6506 32.6407 53.449 32.6391 53.2478C32.6387 53.1972 32.6394 53.1467 32.6388 53.0962C32.6354 52.8456 32.6282 52.5956 32.6179 52.3459C32.6151 52.2752 32.6105 52.2048 32.6071 52.1344C32.5982 51.954 32.5883 51.7738 32.576 51.5938C32.5697 51.5029 32.5623 51.4121 32.5551 51.3212C33.2173 50.6638 33.6276 49.7532 33.6276 48.7464C33.6276 48.5622 33.6137 48.3813 33.5872 48.2045C33.8857 48.0059 34.181 47.8041 34.4738 47.5998C34.5204 47.5673 34.5675 47.5351 34.6139 47.5025C34.9381 47.2746 35.2585 47.0431 35.5755 46.8087C35.6279 46.7699 35.6803 46.7313 35.7325 46.6924C36.0456 46.4589 36.355 46.2221 36.661 45.982C36.7122 45.9418 36.7633 45.9014 36.8144 45.8611C37.1213 45.6183 37.4247 45.3727 37.724 45.1235C37.7684 45.0867 37.8122 45.0495 37.8563 45.0126C38.1616 44.7565 38.4635 44.4979 38.7607 44.2355C38.7909 44.2088 38.8208 44.1818 38.8509 44.1549C39.1611 43.8796 39.4677 43.6016 39.7689 43.3194C39.7733 43.3151 39.7776 43.311 39.782 43.307C40.0832 43.0246 40.3791 42.7382 40.6711 42.4491C40.6956 42.425 40.7204 42.4012 40.7447 42.3769C41.0248 42.0984 41.2996 41.8165 41.5709 41.532C41.6086 41.4924 41.6466 41.4531 41.6841 41.4135C41.9466 41.1361 42.2045 40.8558 42.4586 40.5731C42.5009 40.526 42.5432 40.4789 42.5852 40.4318C42.8356 40.1508 43.0816 39.8671 43.3235 39.581C43.3645 39.5324 43.4053 39.4838 43.4461 39.435C43.6881 39.1462 43.9262 38.8548 44.1595 38.5608C44.1945 38.5166 44.2289 38.4723 44.2637 38.4282C44.5012 38.1264 44.735 37.8223 44.9631 37.5152C44.9866 37.4836 45.0095 37.4518 45.0329 37.4201C45.2505 37.1258 45.4642 36.829 45.6731 36.53C46.1884 36.8109 46.7793 36.9708 47.4075 36.9708C48.7579 36.9708 49.9351 36.2324 50.5597 35.1378C50.5639 35.1386 50.5682 35.1395 50.5725 35.1404C50.6323 35.1519 50.6918 35.1645 50.7517 35.1759C50.9688 35.2173 51.1868 35.2562 51.4052 35.294C51.4372 35.2996 51.4691 35.3058 51.501 35.3111C51.7499 35.3537 51.9997 35.3938 52.2501 35.4316C52.2521 35.4319 52.254 35.4322 52.2558 35.4326C54.2763 35.7376 56.35 35.8924 58.4667 35.8955C58.4953 35.8957 58.5239 35.8964 58.5527 35.8964C58.5555 35.8964 58.5585 35.8962 58.5613 35.8962C58.848 35.896 59.1353 35.8936 59.4235 35.8877C56.7785 49.2529 45.5121 59.0946 31.904 59.9404ZM59.6995 33.6875C59.4472 33.6944 59.1954 33.6991 58.9443 33.7014C58.8551 33.7022 58.7663 33.7017 58.6773 33.7021C58.4857 33.7027 58.2943 33.7025 58.1035 33.7004C58.0061 33.6994 57.9088 33.6976 57.8116 33.696C57.6264 33.6928 57.4416 33.6884 57.2573 33.6827C57.1627 33.6797 57.068 33.6768 56.9735 33.6732C56.7776 33.6657 56.5822 33.6566 56.3872 33.6463C56.3079 33.6422 56.2284 33.6387 56.1494 33.6341C55.8875 33.6188 55.6263 33.6015 55.366 33.5813C55.3554 33.5803 55.3446 33.5798 55.3339 33.579C55.0583 33.5573 54.7836 33.5324 54.5099 33.5052C54.4431 33.4985 54.3767 33.4907 54.3101 33.4837C54.108 33.4625 53.9064 33.4402 53.7055 33.4159C53.615 33.405 53.5248 33.3932 53.4345 33.3817C53.2557 33.3588 53.0774 33.3349 52.8995 33.3095C52.8046 33.2961 52.7098 33.2822 52.6152 33.2681C52.4373 33.2413 52.2601 33.2132 52.0831 33.184C51.9942 33.1693 51.9051 33.1553 51.8163 33.14C51.6073 33.1041 51.3992 33.066 51.1914 33.0266C51.1383 33.0165 51.0847 33.0073 51.0317 32.9971C51.0271 32.9961 51.0227 32.9951 51.0182 32.9943C50.9057 31.8162 50.2301 30.8028 49.2634 30.226C49.3775 29.9715 49.4878 29.7163 49.5952 29.4607C49.6175 29.4076 49.6394 29.3545 49.6614 29.3013C49.7825 29.009 49.9004 28.7164 50.0128 28.4232C50.0225 28.3978 50.0316 28.3725 50.0412 28.3471C50.1499 28.0615 50.2541 27.7755 50.3544 27.4891C50.3681 27.4499 50.3824 27.4108 50.396 27.3716C50.4962 27.082 50.5914 26.7919 50.683 26.5016C50.701 26.4447 50.7189 26.3877 50.7366 26.3307C50.8256 26.0435 50.9106 25.7559 50.9912 25.4683C51.0055 25.4173 51.0191 25.3664 51.033 25.3154C51.1153 25.0157 51.1944 24.716 51.2675 24.416C51.2701 24.405 51.2725 24.394 51.2752 24.3831C51.3467 24.0883 51.4127 23.7935 51.4753 23.4986C51.4854 23.4507 51.496 23.4029 51.506 23.3552C51.5659 23.0661 51.621 22.777 51.6723 22.488C51.6825 22.4302 51.6926 22.3725 51.7025 22.3147C51.7522 22.0247 51.7983 21.7348 51.8393 21.4449C51.8457 21.4002 51.8512 21.3556 51.8574 21.3109C51.8976 21.0174 51.9342 20.7243 51.9654 20.4311C51.967 20.4163 51.9689 20.4014 51.9705 20.3866C52.0019 20.0872 52.0275 19.7881 52.0496 19.4893C52.0533 19.4386 52.0574 19.3878 52.0609 19.3371C52.0806 19.0487 52.0959 18.7605 52.1069 18.4726C52.1076 18.4535 52.1092 18.4343 52.11 18.4152C52.839 17.9841 53.4037 17.3054 53.6889 16.4945C53.9482 16.5126 54.2076 16.531 54.4654 16.5541C54.5517 16.5618 54.6378 16.5705 54.724 16.5788C55.0326 16.6084 55.34 16.6414 55.6458 16.678C55.7074 16.6854 55.7694 16.6917 55.8308 16.6994C56.1835 16.7434 56.5338 16.7926 56.8821 16.8457C56.9138 16.8506 56.9454 16.856 56.9771 16.8609C58.9833 20.9674 60 25.3851 60 30.001C60 31.232 59.9247 32.4679 59.7758 33.6861C59.7503 33.6867 59.725 33.6869 59.6995 33.6875Z" fill="white"/>
</svg>
