<svg width="1190" height="1194" viewBox="0 0 1190 1194" fill="none" xmlns="http://www.w3.org/2000/svg">
<path d="M595.231 1192.74L596.761 1192.74V1053.52L595.231 1053.52V1192.74ZM570.946 1192.26L576.689 1053.16L575.168 1053.1L569.425 1192.2L570.946 1192.26ZM621.225 1192.17L622.956 1192.09L616.43 1053.02L615.107 1053.08L621.225 1192.17ZM545.01 1190.66L556.843 1051.94L555.319 1051.81L543.486 1190.53L545.01 1190.66ZM647.174 1190.48L648.698 1190.34L636.461 1051.66L634.938 1051.79L647.174 1190.48ZM519.127 1187.93L537.099 1049.87L535.583 1049.67L517.61 1187.73L519.127 1187.93ZM672.845 1187.67L674.537 1187.45L656.216 1049.43L654.875 1049.61L672.845 1187.67ZM493.586 1184.09L517.267 1046.9L515.959 1046.67L491.881 1183.79L493.586 1184.09ZM698.57 1183.72L700.241 1183.42L675.836 1046.35L674.492 1046.59L698.57 1183.72ZM468.092 1179.12L497.735 1043.08L496.518 1042.82L466.317 1178.72L468.092 1179.12ZM724.133 1178.63L725.625 1178.29L695.424 1042.38L693.931 1042.72L724.133 1178.63ZM442.678 1172.98L478.551 1038.45L477.071 1038.06L441.199 1172.58L442.678 1172.98ZM749.438 1172.41L750.966 1172L714.609 1037.61L713.186 1037.99L749.438 1172.41ZM417.785 1165.79L459.359 1032.92L458.143 1032.54L416.082 1165.25L417.785 1165.79ZM774.428 1165.09L775.952 1164.61L733.637 1031.97L732.232 1032.42L774.428 1165.09ZM393.176 1157.49L440.493 1026.55L439.234 1026.1L391.558 1156.9L393.176 1157.49ZM799.055 1156.68L800.806 1156.03L752.278 1025.54L751.149 1025.96L799.055 1156.68ZM368.867 1148.08L422.125 1019.45L420.718 1018.87L367.46 1147.5L368.867 1148.08ZM823.347 1147.17L825.007 1146.47L770.853 1018.21L769.683 1018.7L823.347 1147.17ZM345.054 1137.64L404.02 1011.52L402.639 1010.87L343.674 1136.99L345.054 1137.64ZM847.191 1136.59L848.735 1135.86L789.1 1010.05L787.87 1010.63L847.191 1136.59ZM321.889 1126.24L386.107 1002.71L385 1002.13L320.292 1125.41L321.889 1126.24ZM870.455 1125.01L871.896 1124.26L807.035 1001.06L805.762 1001.73L870.455 1125.01ZM299.153 1113.79L368.667 993.162L367.588 992.539L297.59 1112.89L299.153 1113.79ZM893.275 1112.39L894.597 1111.61L824.471 991.339L823.148 992.112L893.275 1112.39ZM276.89 1100.3L351.742 982.913L350.602 982.183L275.459 1099.39L276.89 1100.3ZM915.421 1098.82L916.802 1097.93L841.372 980.915L840.176 981.684L915.421 1098.82ZM255.375 1085.95L335.132 971.834L334.019 971.053L253.987 1084.98L255.375 1085.95ZM936.991 1084.28L938.338 1083.33L857.839 969.738L856.688 970.555L936.991 1084.28ZM234.501 1070.67L319.013 960.034L318.028 959.276L233.063 1069.57L234.501 1070.67ZM957.911 1068.82L959.346 1067.7L873.672 957.96L872.689 958.722L957.911 1068.82ZM214.116 1054.35L303.606 947.693L302.555 946.81L212.827 1053.26L214.116 1054.35ZM978.008 1052.56L979.395 1051.38L889.227 945.304L888.28 946.106L978.008 1052.56ZM194.475 1037.16L288.638 934.604L287.613 933.663L193.334 1036.11L194.475 1037.16ZM997.476 1035.36L998.81 1034.13L904.107 932.073L903.197 932.916L997.476 1035.36ZM175.887 1019.4L274.129 920.753L273.252 919.876L174.601 1018.12L175.887 1019.4ZM1016.28 1017.23L1017.46 1016.04L918.401 918.211L917.426 919.196L1016.28 1017.23ZM157.891 1000.67L260.334 906.39L259.494 905.474L156.663 999.329L157.891 1000.67ZM1034.08 998.521L1035.3 997.177L932.077 903.749L931.244 904.666L1034.08 998.521ZM140.721 981.169L247.174 891.44L246.373 890.489L139.553 979.778L140.721 981.169ZM1051.24 978.834L1052.21 977.659L945.194 888.609L944.217 889.783L1051.24 978.834ZM124.392 960.915L234.685 875.95L233.828 874.835L123.385 959.603L124.392 960.915ZM1067.35 958.647L1068.45 957.204L957.459 873.147L956.707 874.136L1067.35 958.647ZM109.054 940.1L222.783 859.796L222.068 858.774L108.01 938.615L109.054 940.1ZM1082.59 937.754L1083.63 936.267L969.186 856.976L968.478 857.997L1082.59 937.754ZM94.4493 918.364L211.773 843.406L210.949 842.115L93.6245 917.073L94.4493 918.364ZM1097.01 916.076L1097.88 914.694L980.191 840.319L979.434 841.516L1097.01 916.076ZM80.9547 896.25L201.333 826.3L200.653 825.126L80.0986 894.771L80.9547 896.25ZM1110.38 893.947L1111.28 892.382L990.369 823.352L989.749 824.434L1110.38 893.947ZM68.397 873.505L191.68 808.812L191.097 807.696L67.5603 871.902L68.397 873.505ZM1122.88 871.042L1123.63 869.603L999.844 805.874L999.188 807.146L1122.88 871.042ZM56.7671 850.059L182.876 791.073L182.227 789.683L56.1171 848.669L56.7671 850.059ZM1134.26 847.86L1135.05 846.152L1008.47 788.173L1007.98 789.232L1134.26 847.86ZM46.2801 826.375L174.747 772.71L174.26 771.539L45.5898 824.712L46.2801 826.375ZM1144.67 824.071L1145.33 822.48L1016.43 769.861L1015.92 771.103L1144.67 824.071ZM36.7733 802.076L167.496 754.17L167.036 752.906L36.1816 800.454L36.7733 802.076ZM1154.04 799.847L1154.65 798.162L1023.53 751.334L1023.1 752.53L1154.04 799.847ZM28.3033 777.26L161.097 735.431L160.636 733.966L27.8417 775.794L28.3033 777.26ZM1162.33 775.234L1162.79 773.773L1029.92 732.198L1029.46 733.659L1162.33 775.234ZM21.0496 752.503L155.442 716.146L155.112 714.91L20.5879 750.783L21.0496 752.503ZM1169.53 750.345L1169.98 748.624L1035.33 713.232L1035 714.472L1169.53 750.345ZM14.8088 727.148L150.719 696.947L150.431 695.649L14.4368 725.461L14.8088 727.148ZM1175.66 725.018L1176.04 723.285L1039.94 693.947L1039.67 695.205L1175.66 725.018ZM9.69157 701.559L146.83 677.549L146.56 676.007L9.43309 700.086L9.69157 701.559ZM1180.68 699.441L1180.94 697.9L1043.74 674.285L1043.48 675.759L1180.68 699.441ZM5.73823 676.046L143.752 657.726L143.579 656.408L5.51412 674.328L5.73823 676.046ZM1184.54 673.904L1184.74 672.336L1046.65 654.615L1046.48 655.931L1184.54 673.904ZM2.87258 650.203L141.559 637.967L141.443 636.644L2.72317 648.477L2.87258 650.203ZM1187.32 648.025L1187.46 646.298L1048.71 634.871L1048.6 636.192L1187.32 648.025ZM1.12899 624.257L140.219 618.139L140.152 616.609L1.06175 622.728L1.12899 624.257ZM1188.97 622.084L1189.03 620.564L1049.92 614.82L1049.86 616.341L1188.97 622.084ZM0.501474 598.264H139.726L139.724 596.734H0.49998L0.501474 598.264ZM1050.28 596.279H1189.5L1189.5 594.55L1050.27 594.952L1050.28 596.279ZM140.086 578.194L140.149 576.673L1.04383 570.927L0.981074 572.448L140.086 578.194ZM1049.84 576.403L1188.93 570.286L1188.86 568.758L1049.77 574.876L1049.84 576.403ZM141.311 558.142L141.422 556.822L2.70226 544.988L2.55584 546.716L141.311 558.142ZM1048.54 556.37L1187.26 544.537L1187.11 542.812L1048.42 555.048L1048.54 556.37ZM143.351 538.601L143.546 537.085L5.48722 519.112L5.2915 520.629L143.351 538.601ZM1046.39 536.608L1184.46 518.688L1184.26 517.17L1046.19 535.09L1046.39 536.608ZM146.301 518.731L146.522 517.455L9.39574 493.377L9.09393 495.116L146.301 518.731ZM1043.4 517.009L1180.53 492.93L1180.23 491.26L1043.16 515.664L1043.4 517.009ZM150.119 499.03L150.383 497.814L14.389 468.001L14.002 469.776L150.119 499.03ZM1039.52 497.369L1175.51 467.556L1175.14 465.869L1039.23 496.071L1039.52 497.369ZM154.715 479.839L155.055 478.55L20.5311 442.677L20.0889 444.347L154.715 479.839ZM1034.83 478.11L1169.35 442.237L1168.88 440.468L1034.51 476.927L1034.83 478.11ZM160.208 460.639L160.606 459.364L27.7341 417.79L27.2201 419.438L160.208 460.639ZM1029.3 459.055L1162.09 417.227L1161.57 415.577L1028.89 457.773L1029.3 459.055ZM166.48 441.873L166.978 440.498L36.0397 393.181L35.4973 394.687L166.48 441.873ZM1022.89 440.12L1153.74 392.573L1153.21 391.129L1022.36 438.677L1022.89 440.12ZM173.658 423.169L174.138 422L45.4434 368.889L44.7606 370.55L173.658 423.169ZM1015.65 421.491L1144.32 368.316L1143.63 366.653L1015.16 420.318L1015.65 421.491ZM181.545 405.03L182.113 403.802L55.8363 345.175L55.1221 346.713L181.545 405.03ZM1007.67 403.348L1133.79 344.362L1133.14 342.972L1007.02 401.959L1007.67 403.348ZM190.26 387.166L190.835 386.056L67.3063 321.837L66.4786 323.437L190.26 387.166ZM998.796 385.343L1122.33 321.136L1121.5 319.533L998.213 384.227L998.796 385.343ZM199.746 369.694L200.366 368.612L79.7371 299.099L78.8391 300.664L199.746 369.694ZM989.233 367.917L1109.79 298.272L1108.93 296.793L988.554 366.743L989.233 367.917ZM209.934 352.73L210.69 351.533L93.1151 276.973L92.241 278.355L209.934 352.73ZM978.927 350.933L1096.25 275.975L1095.43 274.684L978.102 349.642L978.927 350.933ZM220.947 336.079L221.655 335.058L107.54 255.301L106.507 256.788L220.947 336.079ZM967.801 334.28L1081.86 254.439L1080.81 252.954L967.085 333.258L967.801 334.28ZM232.605 320.011L233.432 318.925L122.792 234.414L121.769 235.757L232.605 320.011ZM956.032 318.226L1066.47 233.458L1065.37 232.017L955.271 317.24L956.032 318.226ZM244.954 304.458L245.931 303.283L138.91 214.233L137.933 215.408L244.954 304.458ZM943.48 302.578L1050.3 213.289L1049.13 211.898L942.679 301.627L943.48 302.578ZM258.078 289.324L258.912 288.407L156.08 194.552L154.858 195.896L258.078 289.324ZM930.35 287.597L1033.18 193.742L1031.95 192.403L929.511 286.683L930.35 287.597ZM271.761 274.869L272.736 273.884L173.882 175.849L172.706 177.037L271.761 274.869ZM916.587 273.203L1015.24 174.961L1013.95 173.675L915.71 272.326L916.587 273.203ZM286.059 261.014L286.971 260.172L192.691 157.729L191.355 158.963L286.059 261.014ZM902.218 259.425L996.498 156.982L995.157 155.755L901.302 258.587L902.218 259.425ZM300.951 247.792L301.898 246.989L212.169 140.536L210.783 141.712L300.951 247.792ZM887.268 246.286L976.997 139.833L975.606 138.666L886.317 245.486L887.268 246.286ZM316.411 235.221L317.495 234.381L232.272 124.287L230.935 125.323L316.411 235.221ZM871.79 233.828L956.755 123.535L955.316 122.431L870.805 233.071L871.79 233.828ZM332.385 223.344L333.499 222.555L253.195 108.826L251.809 109.806L332.385 223.344ZM855.793 222.058L935.824 108.134L934.574 107.257L854.542 221.181L855.793 222.058ZM348.821 212.203L350.016 211.433L274.771 94.2944L273.391 95.1834L348.821 212.203ZM839.349 211.028L914.201 93.6385L912.822 92.7585L838.153 210.268L839.349 211.028ZM365.879 201.701L366.964 201.069L297.014 80.6908L295.451 81.6037L365.879 201.701ZM822.212 200.589L892.209 80.2411L890.646 79.3372L821.133 199.966L822.212 200.589ZM383.328 191.989L384.441 191.404L319.751 68.1211L318.151 68.9638L383.328 191.989ZM804.798 191.006L869.507 67.7326L867.91 66.9004L803.691 190.43L804.798 191.006ZM401.029 183.131L402.339 182.514L343.018 56.5599L341.552 57.2517L401.029 183.131ZM787.151 182.273L846.117 56.152L844.488 55.393L786.016 181.744L787.151 182.273ZM419.186 175.018L420.529 174.456L366.865 45.9893L365.378 46.6108L419.186 175.018ZM769.07 174.29L822.328 45.6561L820.921 45.0734L767.663 173.708L769.07 174.29ZM437.693 167.711L439.068 167.206L391.165 36.4824L389.656 37.0353L437.693 167.711ZM750.552 167.067L798.229 36.2598L796.611 35.6712L749.293 166.609L750.552 167.067ZM456.585 161.204L457.805 160.817L415.977 28.023L414.269 28.5653L456.585 161.204ZM731.637 160.639L773.699 27.9199L771.996 27.385L730.421 160.257L731.637 160.639ZM475.613 155.576L477.037 155.192L440.785 20.7692L439.256 21.1831L475.613 155.576ZM712.707 155.124L748.58 20.6004L747.101 20.2059L711.228 154.73L712.707 155.124ZM494.996 150.766L496.294 150.476L466.093 14.5688L464.406 14.9453L494.996 150.766ZM693.254 150.378L723.456 14.4672L721.681 14.0772L692.038 150.11L693.254 150.378ZM514.192 146.886L515.734 146.614L491.655 9.48739L490.182 9.74736L514.192 146.886ZM673.814 146.535L697.892 9.4082L696.187 9.11237L672.506 146.308L673.814 146.535ZM534.012 143.781L535.33 143.607L517.41 5.54152L515.692 5.76712L534.012 143.781ZM654.19 143.542L672.163 5.48325L670.444 5.26063L652.874 143.373L654.19 143.542ZM553.77 141.57L555.294 141.436L543.058 2.74908L541.534 2.88355L553.77 141.57ZM634.452 141.412L646.285 2.69231L644.761 2.56232L632.928 141.282L634.452 141.412ZM573.597 140.219L575.126 140.152L569.007 1.06226L567.478 1.1295L573.597 140.219ZM614.602 140.14L620.346 1.03537L618.827 0.972618L613.081 140.078L614.602 140.14ZM593.674 139.726L595.001 139.725V0.500488L593.268 0.501982L593.674 139.726Z" fill="url(#paint0_linear_10035_8)" stroke="#0060DE"/>
<mask id="mask0_10035_8" style="mask-type:luminance" maskUnits="userSpaceOnUse" x="23" y="24" width="1144" height="1147">
<path d="M595.019 1169.58C279.49 1169.58 23.7026 913.373 23.7026 597.322C23.7026 281.27 279.49 25.0596 595.019 25.0596C910.549 25.0596 1166.34 281.27 1166.34 597.322C1166.34 913.373 910.549 1169.58 595.019 1169.58Z" fill="white" stroke="white"/>
</mask>
<g mask="url(#mask0_10035_8)">
<path d="M585.202 1192.59L587.658 1053.39L586.128 1053.36L583.678 1192.56L585.202 1192.59ZM609.482 1192.49L611.172 1192.45L607.548 1053.27L606.216 1053.3L609.482 1192.49ZM559.419 1191.62L567.594 1052.64L566.259 1052.56L557.701 1191.52L559.419 1191.62ZM635.447 1191.3L636.974 1191.19L627.606 1052.28L626.079 1052.39L635.447 1191.3ZM533.31 1189.51L547.97 1051.06L546.47 1050.9L531.768 1189.34L533.31 1189.51ZM661.364 1188.98L662.863 1188.81L647.399 1050.45L645.856 1050.62L661.364 1188.98ZM507.661 1186.29L528.094 1048.57L526.782 1048.38L505.949 1186.03L507.661 1186.29ZM687.167 1185.53L688.648 1185.3L667.079 1047.75L665.536 1048L687.167 1185.53ZM482.003 1181.92L508.523 1045.24L507.217 1044.99L480.306 1181.59L482.003 1181.92ZM712.586 1181L714.361 1180.64L686.505 1044.23L685.282 1044.48L712.586 1181ZM456.532 1176.42L489.148 1041.07L487.66 1040.71L455.044 1176.06L456.532 1176.42ZM738.06 1175.29L739.735 1174.87L705.873 1039.83L704.581 1040.15L738.06 1175.29ZM431.337 1169.8L469.962 1036.04L468.544 1035.63L429.812 1169.36L431.337 1169.8ZM763.074 1168.51L764.726 1168.03L725.133 1034.55L723.854 1034.93L763.074 1168.51ZM406.54 1162.1L450.932 1030.15L449.544 1029.68L405.026 1161.59L406.54 1162.1ZM787.882 1160.61L789.516 1160.05L744.03 1028.46L742.76 1028.9L787.882 1160.61ZM382.2 1153.36L432.207 1023.42L430.964 1022.94L380.601 1152.74L382.2 1153.36ZM812.31 1151.62L813.983 1150.96L762.697 1021.53L761.514 1021.99L812.31 1151.62ZM358.286 1143.56L413.767 1015.87L412.693 1015.4L356.566 1142.81L358.286 1143.56ZM836.374 1141.54L838.02 1140.8L781.024 1013.78L779.867 1014.3L836.374 1141.54ZM334.603 1132.63L395.884 1007.61L394.596 1006.98L333.154 1131.92L334.603 1132.63ZM860.043 1130.36L861.576 1129.59L798.989 1005.23L797.778 1005.84L860.043 1130.36ZM311.573 1120.74L378.212 998.501L376.96 997.817L310.148 1119.96L311.573 1120.74ZM883.031 1118.25L884.456 1117.45L816.704 995.825L815.452 996.523L883.031 1118.25ZM289.172 1107.91L360.861 988.562L359.735 987.883L287.684 1107.01L289.172 1107.91ZM905.548 1105.08L907 1104.19L833.76 985.783L832.604 986.496L905.548 1105.08ZM267.221 1094.04L344.071 977.946L343.036 977.257L265.714 1093.04L267.221 1094.04ZM927.459 1090.94L928.821 1090.02L850.466 974.935L849.294 975.731L927.459 1090.94ZM245.843 1079.18L327.802 966.641L326.665 965.811L244.511 1078.21L245.843 1079.18ZM948.684 1075.9L949.912 1074.98L866.769 963.308L865.541 964.222L948.684 1075.9ZM225.17 1063.44L311.994 954.605L310.899 953.729L223.877 1062.41L225.17 1063.44ZM969.106 1060.04L970.515 1058.89L882.352 951.137L881.389 951.922L969.106 1060.04ZM205.219 1046.83L296.695 941.872L295.66 940.967L203.95 1045.72L205.219 1046.83ZM989.031 1043.12L990.174 1042.11L897.604 938.116L896.461 939.134L989.031 1043.12ZM185.999 1029.35L281.963 928.487L280.964 927.534L184.784 1028.2L185.999 1029.35ZM1007.98 1025.57L1009.18 1024.4L912.173 924.535L911.181 925.499L1007.98 1025.57ZM167.556 1011.06L267.82 914.468L266.861 913.471L166.393 1009.85L167.556 1011.06ZM1026.25 1007.11L1027.4 1005.89L926.138 910.34L925.189 911.344L1026.25 1007.11ZM149.924 991.987L254.296 899.847L253.282 898.699L148.91 990.839L149.924 991.987ZM1043.61 987.975L1044.8 986.604L939.464 895.56L938.652 896.499L1043.61 987.975ZM133.213 972.261L241.33 884.543L240.548 883.575L132.071 970.847L133.213 972.261ZM1060.3 967.886L1061.43 966.464L952.038 880.339L951.267 881.313L1060.3 967.886ZM117.201 951.597L229.212 868.912L228.302 867.679L116.291 950.365L117.201 951.597ZM1076.03 947.197L1076.92 945.96L964.186 864.267L963.29 865.504L1076.03 947.197ZM102.242 930.45L217.642 852.564L216.85 851.388L101.322 929.083L102.242 930.45ZM1090.77 925.943L1091.77 924.432L975.363 848.055L974.678 849.093L1090.77 925.943ZM88.2111 908.666L206.796 835.722L206.143 834.654L87.2653 907.12L88.2111 908.666ZM1104.66 903.927L1105.45 902.618L986.03 831.049L985.245 832.358L1104.66 903.927ZM74.972 885.983L196.868 818.717L196.175 817.46L74.1831 884.556L74.972 885.983ZM1117.53 881.419L1118.31 879.992L995.799 813.84L995.12 815.097L1117.53 881.419ZM62.9925 863.225L187.437 800.8L186.916 799.752L62.1483 861.527L62.9925 863.225ZM1129.4 858.377L1130.15 856.84L1004.82 796.222L1004.23 797.428L1129.4 858.377ZM51.7854 839.471L179.027 782.965L178.48 781.732L51.0891 837.898L51.7854 839.471ZM1140.22 834.934L1140.9 833.363L1013.12 778.076L1012.59 779.301L1140.22 834.934ZM41.7078 815.401L171.334 764.606L170.774 763.176L41.1475 813.972L41.7078 815.401ZM1150.09 810.807L1150.64 809.377L1020.6 759.645L1020.05 761.075L1150.09 810.807ZM32.7403 791.037L164.408 745.791L164.016 744.643L32.1397 789.277L32.7403 791.037ZM1158.87 786.362L1159.35 784.91L1027.27 740.883L1026.79 742.335L1158.87 786.362ZM24.8277 766.213L158.381 726.883L157.983 725.526L24.3645 764.636L24.8277 766.213ZM1166.54 761.615L1166.98 760.089L1033.11 721.841L1032.71 723.258L1166.54 761.615ZM17.9818 740.953L153.217 707.859L152.863 706.422L17.6068 739.42L17.9818 740.953ZM1173.17 736.362L1173.53 734.873L1038.08 702.645L1037.73 704.133L1173.17 736.362ZM12.3222 715.716L148.827 688.333L148.535 686.873L12.0144 714.176L12.3222 715.716ZM1178.64 711.088L1178.97 709.389L1042.22 683.263L1041.97 684.568L1178.64 711.088ZM7.7294 690.027L145.334 668.856L145.097 667.314L7.50081 688.545L7.7294 690.027ZM1183.03 685.4L1183.27 683.716L1045.5 663.683L1045.3 665.027L1183.03 685.4ZM4.27509 664.238L142.682 649.174L142.512 647.633L4.10925 662.738L4.27509 664.238ZM1186.28 659.602L1186.43 658.081L1047.94 643.782L1047.79 645.303L1186.28 659.602ZM1.95628 638.559L140.864 629.161L140.776 627.851L1.84123 636.815L1.95628 638.559ZM1188.39 633.871L1188.49 632.236L1049.51 623.977L1049.43 625.312L1188.39 633.871ZM0.735612 612.574L139.921 609.317L139.885 607.782L0.699754 611.049L0.735612 612.574ZM1189.39 607.889L1189.42 606.182L1050.21 604.113L1050.19 605.438L1189.39 607.889ZM139.832 589.226L139.855 587.899L0.660908 585.043L0.629533 586.743L139.832 589.226ZM1050.1 585.555L1189.28 581.883L1189.24 580.357L1050.06 584.021L1050.1 585.555ZM140.592 569.365L140.676 568.029L1.74113 559.065L1.63804 560.695L140.592 569.365ZM1049.16 565.489L1188.07 556.122L1187.95 554.484L1049.06 564.166L1049.16 565.489ZM142.213 549.54L142.371 548.04L3.92547 533.338L3.76262 534.88L142.213 549.54ZM1047.36 545.714L1185.72 530.205L1185.55 528.707L1047.19 544.17L1047.36 545.714ZM144.717 529.666L144.914 528.354L7.25877 507.521L7.00179 509.233L144.717 529.666ZM1044.72 526.037L1182.26 504.405L1182.02 502.925L1044.48 524.493L1044.72 526.037ZM148.058 510.099L148.312 508.794L11.7141 481.882L11.3824 483.579L148.058 510.099ZM1041.19 506.293L1177.71 478.99L1177.35 477.215L1040.94 505.07L1041.19 506.293ZM152.244 490.724L152.603 489.236L17.2512 456.62L16.8926 458.108L152.244 490.724ZM1036.85 486.996L1171.99 453.517L1171.62 452.033L1036.48 485.513L1036.85 486.996ZM157.259 471.592L157.683 470.122L23.9536 431.39L23.5293 432.86L157.259 471.592ZM1031.68 467.91L1165.16 428.316L1164.72 426.851L1031.25 466.444L1031.68 467.91ZM163.169 452.512L163.637 451.124L31.7214 406.606L31.2119 408.119L163.169 452.512ZM1025.6 448.817L1157.31 403.695L1156.74 402.061L1025.16 447.547L1025.6 448.817ZM169.912 433.726L170.391 432.483L40.5947 382.121L39.9776 383.72L169.912 433.726ZM1018.69 430.061L1148.32 379.266L1147.66 377.592L1018.23 428.878L1018.69 430.061ZM177.457 415.287L178.002 414.04L50.4407 358.257L49.7669 359.805L177.457 415.287ZM1011 411.704L1138.24 355.198L1137.51 353.551L1010.48 410.547L1011 411.704ZM185.827 397.157L186.338 396.113L61.4058 334.67L60.575 336.366L185.827 397.157ZM1002.55 393.788L1127.08 331.524L1126.39 330.152L1001.87 392.417L1002.55 393.788ZM194.811 379.726L195.495 378.474L73.3479 311.662L72.571 313.087L194.811 379.726ZM993.249 376.107L1114.97 308.528L1114.14 307.034L992.59 374.922L993.249 376.107ZM204.682 362.459L205.416 361.241L86.2867 289.191L85.4425 290.588L204.682 362.459ZM983.177 358.855L1101.87 286.093L1100.92 284.548L982.52 357.788L983.177 358.855ZM215.244 345.712L216.027 344.534L100.247 267.213L99.339 268.578L215.244 345.712ZM972.389 342.103L1087.79 264.217L1086.84 262.81L971.624 340.974L972.389 342.103ZM226.727 329.162L227.458 328.159L115.057 246.003L113.99 247.468L226.727 329.162ZM960.822 325.754L1072.83 243.068L1071.75 241.61L960.077 324.753L960.822 325.754ZM238.747 313.35L239.521 312.38L130.845 225.357L129.712 226.777L238.747 313.35ZM948.705 310.123L1056.82 222.405L1055.76 221.095L947.839 309.057L948.705 310.123ZM251.45 298.064L252.366 297.011L147.413 205.534L146.32 206.788L251.45 298.064ZM935.74 294.817L1040.11 202.677L1038.91 201.318L934.914 293.888L935.74 294.817ZM264.826 283.317L265.783 282.31L164.917 186.345L163.767 187.556L264.826 283.317ZM922.213 280.196L1022.48 183.601L1021.21 182.294L921.349 279.304L922.213 280.196ZM278.832 269.164L279.831 268.2L183.236 167.935L182.033 169.096L278.832 269.164ZM908.07 266.177L1004.03 165.312L1002.72 164.061L907.169 265.324L908.07 266.177ZM293.437 255.629L294.481 254.707L202.341 150.335L201.093 151.436L293.437 255.629ZM893.338 252.79L984.815 147.837L983.56 146.746L892.284 251.876L893.338 252.79ZM308.625 242.741L309.715 241.858L222.197 133.579L220.908 134.623L308.625 242.741ZM878.166 240.158L964.739 131.123L963.542 130.173L876.969 239.208L878.166 240.158ZM324.34 230.534L325.474 229.696L242.789 117.685L241.46 118.667L324.34 230.534ZM862.232 228.021L944.191 115.478L942.821 114.483L861.127 227.221L862.232 228.021ZM340.578 219.021L341.752 218.229L264.055 102.701L262.691 103.621L340.578 219.021ZM845.964 216.716L922.814 100.623L921.445 99.7187L844.784 215.934L845.964 216.716ZM357.407 208.165L358.475 207.511L286.009 88.6326L284.463 89.5798L357.407 208.165ZM829.084 206.042L900.955 86.8023L899.495 85.9268L827.926 205.346L829.084 206.042ZM374.558 198.137L375.657 197.529L308.561 75.537L306.977 76.414L374.558 198.137ZM811.821 196.157L878.46 73.9174L876.875 73.0568L810.723 195.562L811.821 196.157ZM392.231 188.82L393.359 188.258L331.585 63.4902L329.967 64.294L392.231 188.82ZM794.317 187.124L855.266 61.9498L853.895 61.2819L792.945 186.456L794.317 187.124ZM410.141 180.365L411.373 179.818L355.208 52.4265L353.635 53.1228L410.141 180.365ZM776.192 178.754L831.824 51.1267L830.252 50.4454L774.965 178.222L776.192 178.754ZM428.495 172.664L429.925 172.104L379.13 42.4774L377.7 43.0377L428.495 172.664ZM757.828 171.233L807.835 41.2986L806.166 40.6606L756.654 170.783L757.828 171.233ZM447.248 165.757L448.458 165.345L403.824 33.4681L402.126 34.0478L447.248 165.757ZM739.233 164.554L783.26 32.4746L781.808 31.9905L737.781 164.07L739.233 164.554ZM466.215 159.711L467.573 159.313L428.464 25.6944L426.886 26.1576L466.215 159.711ZM720.155 158.639L758.511 24.8025L756.986 24.3677L718.737 158.234L720.155 158.639ZM485.433 154.507L486.678 154.2L453.68 18.9442L451.954 19.367L485.433 154.507ZM701.029 153.621L733.258 18.1792L731.724 17.8131L699.586 153.278L701.029 153.621ZM504.77 150.171L506.034 149.918L479.122 13.3204L477.386 13.6656L504.77 150.171ZM681.46 149.4L707.98 12.7243L706.281 12.3986L680.155 149.149L681.46 149.4ZM524.247 146.694L525.76 146.461L504.589 8.85612L503.075 9.0892L524.247 146.694ZM661.916 146.08L682.289 8.35561L680.605 8.10908L660.573 145.884L661.916 146.08ZM543.933 144.057L545.475 143.888L530.369 5.48548L528.869 5.64833L543.933 144.057ZM642.191 143.615L656.489 5.1254L654.968 4.97002L640.67 143.459L642.191 143.615ZM563.744 142.278L565.259 142.177L556.295 3.24286L554.754 3.34297L563.744 142.278ZM622.4 142.012L630.552 3.02622L628.834 2.92761L621.065 141.934L622.4 142.012ZM583.793 141.35L585.123 141.32L582.266 2.12529L580.572 2.16264L583.793 141.35ZM602.527 141.268L604.568 2.05806L603.044 2.03564L600.998 141.245L602.527 141.268Z" fill="url(#paint1_linear_10035_8)" stroke="#0060DE"/>
</g>
<defs>
<linearGradient id="paint0_linear_10035_8" x1="4758.94" y1="2636.4" x2="5827.3" y2="3159.76" gradientUnits="userSpaceOnUse">
<stop stop-color="#1583E4"/>
<stop offset="0.0030861" stop-color="#1481E1"/>
<stop offset="0.0429935" stop-color="#1270C3"/>
<stop offset="0.0866505" stop-color="#0F62AA"/>
<stop offset="0.135835" stop-color="#0E5797"/>
<stop offset="0.19296" stop-color="#0C4F8A"/>
<stop offset="0.265194" stop-color="#0C4B82"/>
<stop offset="0.402234" stop-color="#0C4A80"/>
<stop offset="0.411914" stop-color="#0B4476"/>
<stop offset="0.447448" stop-color="#083256"/>
<stop offset="0.487727" stop-color="#05223B"/>
<stop offset="0.533199" stop-color="#031525"/>
<stop offset="0.5863" stop-color="#010B14"/>
<stop offset="0.652002" stop-color="#000508"/>
<stop offset="0.744164" stop-color="#000101"/>
<stop offset="1"/>
</linearGradient>
<linearGradient id="paint1_linear_10035_8" x1="2510" y1="1483.37" x2="3589.34" y2="1982.77" gradientUnits="userSpaceOnUse">
<stop offset="0.408115" stop-color="#1583E4"/>
<stop offset="1"/>
</linearGradient>
</defs>
</svg>
