<svg width="0" height="0" class="hidden">
  <symbol fill="none" xmlns="http://www.w3.org/2000/svg" viewBox="0 0 56 56" id="worldwide">
    <path d="M15.6176 49.7578C15.6176 46.3077 18.3896 43.5155 21.809 43.5155C25.228 43.5155 28 46.3077 28 49.7578C28 53.2039 25.228 56 21.809 56C18.3896 56 15.6176 53.2039 15.6176 49.7578ZM34.191 56C37.6104 56 40.3824 53.2039 40.3824 49.7578C40.3824 46.3077 37.6104 43.5155 34.191 43.5155C30.772 43.5155 28 46.3077 28 49.7578C28 53.2039 30.772 56 34.191 56ZM44.6444 49.2252C48.0638 49.2252 50.8358 46.4291 50.8358 42.979C50.8358 39.5328 48.0638 36.7368 44.6444 36.7368C41.2254 36.7368 38.4534 39.5328 38.4534 42.979C38.4534 46.4291 41.2254 49.2252 44.6444 49.2252ZM49.809 37.8372C53.2284 37.8372 56 35.0411 56 31.5911C56 28.1449 53.2284 25.3488 49.809 25.3488C46.3896 25.3488 43.6176 28.1449 43.6176 31.5911C43.6176 35.0411 46.3896 37.8372 49.809 37.8372ZM48.0354 25.4741C51.4548 25.4741 54.2268 22.6781 54.2268 19.2319C54.2268 15.7818 51.4548 12.9897 48.0354 12.9897C44.6165 12.9897 41.8445 15.7818 41.8445 19.2319C41.8445 22.6781 44.6165 25.4741 48.0354 25.4741ZM39.9156 16.0011C43.3345 16.0011 46.1065 13.205 46.1065 9.75498C46.1065 6.30881 43.3345 3.51272 39.9156 3.51272C36.4962 3.51272 33.7242 6.30881 33.7242 9.75498C33.7242 13.205 36.4962 16.0011 39.9156 16.0011ZM28 12.4845C31.4194 12.4845 34.191 9.69231 34.191 6.24221C34.191 2.79609 31.4194 0 28 0C24.5806 0 21.809 2.79609 21.809 6.24221C21.809 9.69231 24.5806 12.4845 28 12.4845ZM16.084 16.0011C19.5034 16.0011 22.2754 13.205 22.2754 9.75498C22.2754 6.30881 19.5034 3.51272 16.084 3.51272C12.6651 3.51272 9.89305 6.30881 9.89305 9.75498C9.89305 13.205 12.6651 16.0011 16.084 16.0011ZM7.96454 25.4741C11.3839 25.4741 14.1555 22.6781 14.1555 19.2319C14.1555 15.7818 11.3839 12.9897 7.96454 12.9897C4.54517 12.9897 1.77317 15.7818 1.77317 19.2319C1.77317 22.6781 4.54517 25.4741 7.96454 25.4741ZM6.19099 37.8372C9.61035 37.8372 12.3824 35.0411 12.3824 31.5911C12.3824 28.1449 9.61035 25.3488 6.19099 25.3488C2.772 25.3488 0 28.1449 0 31.5911C0 35.0411 2.772 37.8372 6.19099 37.8372ZM11.3556 49.2252C14.7745 49.2252 17.5465 46.4291 17.5465 42.979C17.5465 39.5328 14.7745 36.7368 11.3556 36.7368C7.93619 36.7368 5.16419 39.5328 5.16419 42.979C5.16419 46.4291 7.93619 49.2252 11.3556 49.2252Z" fill="white"></path>
  </symbol>
  <symbol fill="none" xmlns="http://www.w3.org/2000/svg" viewBox="0 0 56 38" id="self-service">
    <path d="M52.2406 9.85671L52.2251 9.87214L46.1716 3.79427C41.1685 -1.26001 33.025 -1.26459 27.985 3.77954C22.975 -1.26459 14.8319 -1.26001 9.79786 3.79427L9.8129 3.80975L3.75941 9.88762C-1.25314 14.9161 -1.25314 23.0729 3.75941 28.1676L3.77489 28.1522L9.82837 34.2256C14.8319 39.2534 22.975 39.258 28.0155 34.2403C33.025 39.258 41.1685 39.2534 46.2069 34.2256L46.1914 34.2102L52.2406 28.1323C57.2531 23.0729 57.2531 14.9161 52.2406 9.85671ZM28 22.0434L27.9854 22.058C26.32 20.369 26.3243 17.6636 28 15.981L28.0146 15.9662C29.6804 17.6553 29.6762 20.3606 28 22.0434ZM15.893 28.1367L9.82837 22.0434L9.81376 22.058C8.14835 20.369 8.15265 17.6636 9.82837 15.981L15.893 9.88762L15.8784 9.87295C17.5606 8.20069 20.2553 8.20495 21.931 9.88762C16.9232 14.9155 16.9228 23.0712 21.9298 28.166C20.2463 29.8184 17.5636 29.8098 15.893 28.1367ZM46.1759 22.0434L40.107 28.1323L40.1242 28.1493C38.442 29.8194 35.7455 29.8157 34.069 28.1367L34.0668 28.1345L34.069 28.1323C39.0768 23.0734 39.0772 14.9178 34.0707 9.85828C35.7537 8.20155 38.4364 8.21018 40.107 9.88762L46.1716 15.981L46.1888 15.964C47.8521 17.6529 47.8482 20.3599 46.1759 22.0434Z" fill="white"></path>
  </symbol>
  <symbol fill="none" xmlns="http://www.w3.org/2000/svg" viewBox="0 0 56 56" id="traffic">
    <path d="M11.9963 44L19.9921 48.8345V36.0034H19.9832V28.0068H12.0094V20.0016H19.9925L24.4181 12.0093H11.9967C5.37607 12.0162 0 17.3953 0 24.0151C0 30.639 5.37564 36.0177 11.9963 36.0248V44Z" fill="white"></path>
    <path d="M23.986 56.0331C30.6129 56.0331 35.995 50.6513 35.995 44.0229H11.9766C11.9766 50.6513 17.359 56.0331 23.986 56.0331Z" fill="white"></path>
    <path d="M36.0032 36.0049H28.0078V46.0201L35.9943 44.0015V44.0059H43.9901L48.3684 36.0092H36.0032V36.0049Z" fill="white"></path>
    <path d="M44.0223 12.01C44.0223 5.38169 38.6394 0 32.0129 0C25.3859 0 20.0039 5.38169 20.0039 12.01V20.0024H27.9993V12.01H35.9955V25.3572L43.9913 20.0024V12.01H44.0223Z" fill="white"></path>
    <path d="M43.9901 20.0039V20.0083H36.0117V28.0048H43.9901V44.024C50.6167 44.024 55.9991 38.6423 55.9991 32.014C55.9991 25.3899 50.6167 20.0039 43.9901 20.0039Z" fill="white"></path>
  </symbol>
  <symbol fill="none" xmlns="http://www.w3.org/2000/svg" viewBox="0 0 60 60" id="twitter">
    <path d="M43.3125 0H51.7481L33.3231 21.1131L55 49.8438H38.0291L24.7363 32.4156L9.52531 49.8438H1.08625L20.7934 27.2594L0 0H17.4041L29.4181 15.9259L43.3125 0ZM40.3562 44.7837H45.0313L14.8603 4.79531H9.84844L40.3562 44.7837Z" fill="white"></path>
  </symbol>
  <symbol fill="none" xmlns="http://www.w3.org/2000/svg" viewBox="0 0 60 60" id="linkedin">
    <path fill-rule="evenodd" clip-rule="evenodd" d="M49 49H39.2V31.8524C39.2 27.1484 37.1249 24.5239 33.4033 24.5239C29.3535 24.5239 26.95 27.2586 26.95 31.8524V49H17.15V17.15H26.95V20.7317C26.95 20.7317 30.0247 15.3364 36.9533 15.3364C43.8844 15.3364 49 19.566 49 28.3174V49ZM5.9829 12.0562C2.67785 12.0562 0 9.35645 0 6.0269C0 2.6998 2.67785 0 5.9829 0C9.2855 0 11.9633 2.6998 11.9633 6.0269C11.9658 9.35645 9.2855 12.0562 5.9829 12.0562ZM0 49H12.25V17.15H0V49Z" fill="white"></path>
  </symbol>
  <symbol fill="none" xmlns="http://www.w3.org/2000/svg" viewBox="0 0 60 60" id="telegram">
    <path d="M54.4273 0.437736C54.4273 0.437736 59.9315 -1.70851 59.4728 3.50381C59.3199 5.65009 57.9439 13.162 56.8736 21.2871L53.2042 45.3559C53.2042 45.3559 52.8985 48.8818 50.1463 49.4951C47.3942 50.1082 43.2661 47.3488 42.5016 46.7355C41.89 46.2757 31.0346 39.377 27.2122 36.0043C26.1419 35.0845 24.9187 33.2448 27.365 31.0985L43.419 15.7682C45.2537 13.9285 47.0884 9.63602 39.4437 14.8484L18.0386 29.4123C18.0386 29.4123 15.5923 30.9452 11.0055 29.5655L1.06735 26.4995C1.06735 26.4995 -2.60212 24.1999 3.66655 21.9002C18.956 14.6949 37.762 7.33635 54.4273 0.437736Z" fill="white"></path>
  </symbol>
  <symbol fill="none" xmlns="http://www.w3.org/2000/svg" viewBox="0 0 60 60" id="facebook">
    <path d="M32.725 0.0110005L23.6335 0C14.817 0 9.12175 5.841 9.12175 14.8913V21.7525H0V34.1688H9.12175L9.11075 60.5H21.8735L21.8845 34.1688H30.8633L32.3428 21.7552H21.8845V15.9335C21.8845 13.134 22.5472 11.7178 26.191 11.7178L32.6975 11.715L32.725 0.0110005Z" fill="white"></path>
  </symbol>
  <symbol fill="none" xmlns="http://www.w3.org/2000/svg" viewBox="0 0 60 60" id="instagram">
    <path d="M45.9362 11.0449C43.928 11.0449 42.4219 12.5511 42.4219 14.5592C42.4219 16.5674 43.928 18.0735 45.9362 18.0735C47.9444 18.0735 49.4505 16.5674 49.4505 14.5592C49.4505 12.5511 47.9444 11.0449 45.9362 11.0449Z" fill="white"></path>
    <path d="M30.1228 15.563C21.8391 15.563 15.3125 22.3406 15.3125 30.3733C15.3125 38.406 22.0901 45.1836 30.1228 45.1836C38.1555 45.1836 44.9331 38.406 44.9331 30.3733C44.9331 22.3406 38.4065 15.563 30.1228 15.563ZM30.1228 39.9121C24.8513 39.9121 20.584 35.6448 20.584 30.3733C20.584 25.1018 24.8513 20.8345 30.1228 20.8345C35.3943 20.8345 39.6616 25.1018 39.6616 30.3733C39.6616 35.6448 35.3943 39.9121 30.1228 39.9121Z" fill="white"></path>
    <path d="M42.1717 0H18.3246C8.03271 0 0 8.03271 0 18.0736V41.9207C0 51.9616 8.03271 59.9943 18.0736 59.9943H41.9207C51.9616 59.9943 59.9943 51.9616 59.9943 41.9207V18.0736C60.2453 8.03271 52.2126 0 42.1717 0ZM54.4718 42.1717C54.4718 48.9493 48.9493 54.7228 41.9207 54.7228H18.0736C11.296 54.7228 5.52249 49.2003 5.52249 42.1717V18.3246C5.52249 11.547 11.045 5.77351 18.0736 5.77351H41.9207C48.6983 5.77351 54.4718 11.296 54.4718 18.3246V42.1717Z" fill="white"></path>
  </symbol>

</svg>