<svg width="453" height="316" viewBox="0 0 453 316" fill="none" xmlns="http://www.w3.org/2000/svg">
<path d="M452.576 146.988L450.682 147.5C440.857 150.113 431.677 152.566 423.174 154.866C415.93 156.825 409.764 158.508 404.363 160.024C363.846 170.585 338.112 175.485 318.31 171.129C300.192 167.143 286.886 155.369 270.203 135.285C255.635 114.962 249.432 101.459 256.121 90.8321C263.492 79.1283 286.588 70.8218 326.62 59.5974C332.104 58.1592 338.278 56.5183 345.524 54.5593C354.025 52.259 363.126 49.7698 372.897 47.0824L374.811 46.5661L374.387 46.0176L372.493 46.5292C362.667 49.143 353.487 51.5952 344.985 53.8953C337.739 55.8544 331.573 57.537 326.175 59.0536C285.656 69.614 259.923 74.514 240.12 70.1581C220.318 65.8019 206.266 52.1482 187.268 28.5011C181.313 20.5174 174.299 11.5838 166.163 1.23072L165.212 0L164.285 0.253662L165.152 1.37365C173.12 11.8283 179.997 20.8447 186.351 28.7638C204.226 52.7292 212.505 67.9271 205.134 79.6354C197.764 91.339 174.667 99.6455 134.636 110.87C129.152 112.308 122.978 113.949 115.732 115.908C107.23 118.208 98.109 120.707 88.3382 123.39L86.4239 123.91L86.8479 124.459L88.7414 123.943C98.5684 121.329 107.748 118.877 116.25 116.576C123.496 114.617 129.662 112.935 135.059 111.418C175.579 100.858 201.312 95.9578 221.115 100.314C239.296 104.318 252.633 116.158 269.397 136.371C283.854 156.573 289.989 170.017 283.323 180.606C276.779 190.998 257.824 198.713 225.636 208.169C193.076 216.194 171.095 219.513 153.697 215.686C133.894 211.33 119.843 197.676 100.845 174.029C94.8895 166.045 87.8756 157.112 79.739 146.759L78.7878 145.528L77.8615 145.782L78.7279 146.902C86.6963 157.356 93.5738 166.373 99.9279 174.292C117.803 198.257 126.081 213.455 118.71 225.163C111.34 236.867 88.2438 245.174 48.2116 256.398C42.7286 257.836 36.5542 259.477 29.3085 261.436C20.8065 263.737 11.6851 266.235 1.9148 268.918L0 269.439L0.424048 269.987L2.31803 269.471C12.145 266.857 21.3244 264.405 29.8265 262.105C37.0722 260.146 43.2388 258.463 48.6356 256.947C89.1554 246.386 114.889 241.486 134.691 245.842C154.493 250.203 168.545 263.852 187.543 287.499C193.498 295.483 200.514 304.416 208.648 314.769L209.598 316L209.621 315.995L210.547 315.742L209.68 314.622C201.712 304.167 194.835 295.151 188.48 287.231C170.605 263.266 162.327 248.068 169.698 236.36C176.243 225.966 195.203 218.25 227.403 208.792C259.943 200.774 281.912 197.459 299.304 201.285C319.106 205.645 333.158 219.294 352.156 242.941C358.111 250.925 365.127 259.859 373.261 270.212L374.21 271.443L374.233 271.438L375.16 271.184L374.293 270.064C366.325 259.61 359.447 250.593 353.093 242.674C335.218 218.709 326.94 203.511 334.31 191.803C341.681 180.099 364.777 171.792 404.81 160.568C410.294 159.13 416.465 157.489 423.714 155.53C432.216 153.23 441.313 150.74 451.087 148.053L453 147.537L452.576 146.988Z" fill="url(#paint0_linear_10028_14753)"/>
<defs>
<linearGradient id="paint0_linear_10028_14753" x1="365.096" y1="-54.4642" x2="0.0267005" y2="340.291" gradientUnits="userSpaceOnUse">
<stop offset="0.168269" stop-color="#00085B"/>
<stop offset="0.644231" stop-color="#1A8FFB"/>
<stop offset="0.846154" stop-color="#0077FF"/>
</linearGradient>
</defs>
</svg>
